<svg id="Layer_1" data-name="Layer 1" xmlns="http://www.w3.org/2000/svg" viewBox="0 0 1643.5 795"><defs><style>.cls-1{font-size:56px;font-family:Roboto-Regular, Roboto;}.cls-2,.cls-3{fill:none;stroke:#000;stroke-miterlimit:10;}.cls-3{stroke-width:2px;}</style></defs><text class="cls-1" transform="translate(731.48 79.36)">&lt;html&gt;</text><rect class="cls-2" x="632" y="0.5" width="368.5" height="125" rx="8"/><line class="cls-3" x1="815.98" y1="125.4" x2="393.05" y2="334.1"/><line class="cls-3" x1="814.05" y1="125.4" x2="1236.98" y2="334.1"/><text class="cls-1" transform="translate(301.11 413.86)">&lt;head&gt;</text><rect class="cls-2" x="207" y="335" width="368.5" height="125" rx="8"/><text class="cls-1" transform="translate(97.43 748.36)">&lt;style&gt;</text><rect class="cls-2" x="0.5" y="669.5" width="368.5" height="125" rx="8"/><text class="cls-1" transform="translate(522.17 748.36)">&lt;title&gt;</text><rect class="cls-2" x="413.5" y="669.5" width="368.5" height="125" rx="8"/><polyline class="cls-3" points="179.75 668.9 179.75 610.9 602.75 610.9 602.75 668.9"/><line class="cls-3" x1="391.25" y1="459.4" x2="391.25" y2="610.9"/><text class="cls-1" transform="translate(1162.67 413.86)">&lt;body&gt;</text><rect class="cls-2" x="1068" y="335" width="368.5" height="125" rx="8"/><text class="cls-1" transform="translate(955.17 748.36)">&lt;table&gt;</text><rect class="cls-2" x="861.5" y="669.5" width="368.5" height="125" rx="8"/><text class="cls-1" transform="translate(1414.18 748.36)">&lt;p&gt;</text><rect class="cls-2" x="1274.5" y="669.5" width="368.5" height="125" rx="8"/><polyline class="cls-3" points="1040.75 668.9 1040.75 610.9 1463.75 610.9 1463.75 668.9"/><line class="cls-3" x1="1252.25" y1="459.4" x2="1252.25" y2="610.9"/></svg>