<?xml version="1.0" encoding="UTF-8" standalone="no"?>
<!-- Created with Inkscape (http://www.inkscape.org/) -->

<svg
   xmlns:dc="http://purl.org/dc/elements/1.1/"
   xmlns:cc="http://creativecommons.org/ns#"
   xmlns:rdf="http://www.w3.org/1999/02/22-rdf-syntax-ns#"
   xmlns:svg="http://www.w3.org/2000/svg"
   xmlns="http://www.w3.org/2000/svg"
   xmlns:sodipodi="http://sodipodi.sourceforge.net/DTD/sodipodi-0.dtd"
   xmlns:inkscape="http://www.inkscape.org/namespaces/inkscape"
   width="224.89148mm"
   height="196.27849mm"
   viewBox="-0.1 0 224.78438 196.27849"
   version="1.1"
   id="svg1795"
   inkscape:version="0.92.3 (2405546, 2018-03-11)"
   sodipodi:docname="econ.svg">
  <defs
     id="defs1789" />
  <sodipodi:namedview
     id="base"
     pagecolor="#ffffff"
     bordercolor="#666666"
     borderopacity="1.0"
     inkscape:pageopacity="0.0"
     inkscape:pageshadow="2"
     inkscape:zoom="0.35"
     inkscape:cx="87.45831"
     inkscape:cy="33.777119"
     inkscape:document-units="mm"
     inkscape:current-layer="layer1"
     showgrid="false"
     fit-margin-top="0"
     fit-margin-left="0"
     fit-margin-right="0"
     fit-margin-bottom="0"
     inkscape:window-width="1680"
     inkscape:window-height="982"
     inkscape:window-x="0"
     inkscape:window-y="32"
     inkscape:window-maximized="1" />
  <metadata
     id="metadata1792">
    <rdf:RDF>
      <cc:Work
         rdf:about="">
        <dc:format>image/svg+xml</dc:format>
        <dc:type
           rdf:resource="http://purl.org/dc/dcmitype/StillImage" />
        <dc:title />
      </cc:Work>
    </rdf:RDF>
  </metadata>
  <g
     inkscape:label="Layer 1"
     inkscape:groupmode="layer"
     id="layer1"
     transform="translate(229.51501,98.984483)">
    <path
       inkscape:connector-curvature="0"
       id="path528"
       style="fill:#000000;fill-opacity:1;fill-rule:nonzero;stroke:none;stroke-width:0.54651862;stroke-opacity:1"
       d="m -169.13101,58.537866 c 3.70861,-1.24342 7.86335,-2.751416 12.27762,-4.576874 16.53396,-6.830939 39.8643,-19.439865 57.098162,-40.731643 11.735657,-14.5031701 19.322344,-31.334472 22.52868,-50.001813 0.361629,-2.079441 -1.078486,-4.047766 -3.274022,-4.481648 l -13.564604,-2.687927 36.827263,-29.741821 21.038481,40.980325 -14.817824,-1.989489 c -0.203216,-0.02655 -0.400032,-0.0369 -0.598448,-0.0369 -1.823345,0 -3.482838,1.116441 -4.013601,2.804336 -4.228017,13.307351 -9.330985,24.5299816 -15.608127,34.3081143 -7.073045,11.0268577 -15.546042,20.1700467 -25.91007,27.9428137 -17.69677,13.265034 -41.36587,22.556374 -71.98367,28.212658 z m -27.14633,5.206548 c 0.55364,3.344029 3.57324,5.714494 7.09001,5.714494 0.31042,0 0.62725,-0.021 0.94887,-0.05849 42.19553,-5.190665 73.69965,-15.963535 96.324498,-32.9377 11.159932,-8.365383 20.265139,-18.191137 27.857426,-30.0275475 6.12481,-9.5453188 11.182654,-20.3234895 15.404911,-32.8742075 l 13.468756,1.804297 c 2.653172,0.359818 5.25546,-0.677265 6.824706,-2.693218 1.574525,-2.010656 1.834546,-4.666837 0.676854,-6.910306 l -22.675572,-44.160063 v -0.0053 c -0.982479,-1.888958 -2.856228,-3.259378 -5.040883,-3.677382 -2.139371,-0.428587 -4.448035,0.132288 -6.141611,1.497407 l -39.819025,32.149316 c -2.06048,1.661437 -2.94663,4.333491 -2.2749,6.799186 0.68326,2.492156 2.78854,4.381112 5.48124,4.920815 l 11.950235,2.370464 c -3.319306,15.921208 -10.110088,30.3079778 -20.242575,42.8216579 -16.13889,19.9531061 -38.15953,31.8371341 -53.79022,38.2923961 -8.91895,3.682674 -16.73158,6.031959 -21.71598,7.354767 -2.7943,0.730135 -4.99015,1.227491 -6.35618,1.518571 -0.71046,0.148486 -1.27051,0.264576 -1.6427,0.328021 l -0.36642,0.07949 c -4.00784,0.671941 -6.57621,4.047767 -5.96096,7.693403" />
    <path
       inkscape:connector-curvature="0"
       id="path530"
       style="fill:#000000;fill-opacity:1;fill-rule:nonzero;stroke:none;stroke-width:0.54651862;stroke-opacity:1"
       d="m -5.0001371,91.565523 c 0,-3.015978 -2.6134888,-5.455226 -5.8254259,-5.455226 H -217.69969 V -93.255999 c 0,-3.010692 -2.60805,-5.455225 -5.81999,-5.455225 -3.21753,0 -5.82542,2.444533 -5.82542,5.455225 v 0 184.821522 c 0,1.433873 0.62085,2.846673 1.70477,3.857283 1.08329,1.02126 2.59093,1.597943 4.12065,1.597943 h 212.694117 c 3.2119371,0 5.8254259,-2.439233 5.8254259,-5.455226" />
  </g>
</svg>
