<?xml version="1.0" encoding="UTF-8" standalone="no"?>
<!-- Created with Inkscape (http://www.inkscape.org/) -->

<svg
   xmlns:dc="http://purl.org/dc/elements/1.1/"
   xmlns:cc="http://creativecommons.org/ns#"
   xmlns:rdf="http://www.w3.org/1999/02/22-rdf-syntax-ns#"
   xmlns:svg="http://www.w3.org/2000/svg"
   xmlns="http://www.w3.org/2000/svg"
   xmlns:sodipodi="http://sodipodi.sourceforge.net/DTD/sodipodi-0.dtd"
   xmlns:inkscape="http://www.inkscape.org/namespaces/inkscape"
   width="90.356613mm"
   height="75.671738mm"
   viewBox="0 0 90.356613 75.67174"
   version="1.1"
   id="svg2986"
   inkscape:version="0.92.3 (2405546, 2018-03-11)"
   sodipodi:docname="econds_symbol.svg">
  <defs
     id="defs2980" />
  <sodipodi:namedview
     id="base"
     pagecolor="#ffffff"
     bordercolor="#666666"
     borderopacity="1.0"
     inkscape:pageopacity="0.0"
     inkscape:pageshadow="2"
     inkscape:zoom="0.35"
     inkscape:cx="299.32441"
     inkscape:cy="-43.804773"
     inkscape:document-units="mm"
     inkscape:current-layer="layer1"
     showgrid="false"
     fit-margin-top="0"
     fit-margin-left="0"
     fit-margin-right="0"
     fit-margin-bottom="0"
     inkscape:window-width="1680"
     inkscape:window-height="982"
     inkscape:window-x="0"
     inkscape:window-y="32"
     inkscape:window-maximized="1" />
  <metadata
     id="metadata2983">
    <rdf:RDF>
      <cc:Work
         rdf:about="">
        <dc:format>image/svg+xml</dc:format>
        <dc:type
           rdf:resource="http://purl.org/dc/dcmitype/StillImage" />
        <dc:title></dc:title>
      </cc:Work>
    </rdf:RDF>
  </metadata>
  <g
     inkscape:label="Layer 1"
     inkscape:groupmode="layer"
     id="layer1"
     transform="translate(129.46708,-61.571583)">
    <path
       inkscape:connector-curvature="0"
       id="path440"
       style="fill:#000000;fill-opacity:1;fill-rule:nonzero;stroke:none;stroke-width:0.18718289"
       d="m -44.191091,116.23021 -2.877003,-0.54845 c -0.89846,-0.17218 -1.791349,0.31072 -2.139474,1.15118 -0.915333,2.20126 -2.223732,4.19289 -3.893415,5.92059 -0.636452,0.65515 -0.720658,1.66592 -0.207995,2.42028 l 1.649096,2.42589 -3.979531,2.70666 -1.647186,-2.42777 c -0.513088,-0.75434 -1.486256,-1.04634 -2.326722,-0.69819 -2.22559,0.91534 -4.557881,1.40013 -6.93883,1.43944 -0.911619,0.017 -1.690271,0.67011 -1.856878,1.56672 l -0.550283,2.87514 -4.7264,-0.90035 0.548479,-2.87701 c 0.174035,-0.8966 -0.312522,-1.78947 -1.149326,-2.14136 -2.203146,-0.91346 -4.192885,-2.22187 -5.920615,-3.89342 -0.656986,-0.63267 -1.667774,-0.72065 -2.420267,-0.20591 l -2.427746,1.64907 -2.706686,-3.97951 2.427803,-1.64907 c 0.756208,-0.51289 1.046338,-1.48437 0.700017,-2.32669 -0.917191,-2.22186 -1.400086,-4.55416 -1.441261,-6.93699 -0.01592,-0.91159 -0.668291,-1.6884 -1.564887,-1.85873 l -2.87701,-0.55032 0.902226,-4.72449 2.877009,0.55031 c 0.894746,0.17032 1.787634,-0.31072 2.137617,-1.15305 0.913475,-2.199395 2.227498,-4.191016 3.895325,-5.918716 0.632631,-0.657011 0.722514,-1.667799 0.207994,-2.420275 l -1.649042,-2.427764 3.979478,-2.70292 1.649096,2.424023 c 0.513087,0.754344 1.482488,1.04822 2.326668,0.698191 2.220019,-0.913455 4.550401,-1.40013 6.937026,-1.439436 0.909709,-0.01485 1.686504,-0.668244 1.858683,-1.56298 l 0.550335,-2.878871 4.720775,0.902221 -0.546567,2.875126 c -0.172444,0.896609 0.310929,1.789471 1.15304,2.143246 2.199378,0.911582 4.191028,2.22186 5.916848,3.891533 0.656986,0.632678 1.667773,0.720651 2.42398,0.205924 l 2.42589,-1.647212 2.704826,3.979511 -2.425891,1.647206 c -0.75435,0.512873 -1.050104,1.484363 -0.701926,2.328553 0.91719,2.21999 1.403853,4.55229 1.441313,6.937 0.01592,0.90971 0.670092,1.68839 1.566694,1.85873 l 2.877005,0.54845 z m 3.517169,-8.14807 -3.286942,-0.62519 c -0.157056,-1.79883 -0.522108,-3.56958 -1.098761,-5.28792 l 2.772212,-1.87931 c 0.877872,-0.598991 1.106241,-1.796963 0.509373,-2.676719 l -4.868653,-7.167232 c -0.288115,-0.421135 -0.729997,-0.71317 -1.233533,-0.80863 -0.499823,-0.09731 -1.022036,0.01319 -1.446938,0.299468 l -2.766587,1.883058 c -1.386981,-1.169892 -2.893824,-2.160087 -4.509227,-2.968717 l 0.62706,-3.285059 c 0.200566,-1.042608 -0.486557,-2.053396 -1.531143,-2.253685 l -8.513061,-1.621001 c -0.499821,-0.09923 -1.018268,0.0095 -1.441314,0.297612 -0.421294,0.288274 -0.713176,0.730011 -0.810487,1.231665 l -0.623345,3.285058 c -1.79883,0.155359 -3.567682,0.524125 -5.286021,1.098762 l -1.881232,-2.770307 c -0.288115,-0.421135 -0.731853,-0.71317 -1.233532,-0.808629 -0.499823,-0.09732 -1.021983,0.01114 -1.445029,0.299468 l -7.165343,4.868628 c -0.422889,0.286362 -0.713177,0.730015 -0.808635,1.235409 -0.09339,0.49977 0.01026,1.018274 0.299261,1.441304 l 1.88118,2.770312 c -1.16986,1.383276 -2.158201,2.893844 -2.96683,4.50549 l -3.286947,-0.625192 c -0.497698,-0.09546 -1.018268,0.01114 -1.437544,0.299469 -0.426607,0.288274 -0.71694,0.733757 -0.81426,1.233538 l -1.622874,8.50933 c -0.196326,1.04449 0.488667,2.0534 1.533046,2.25368 l 3.283179,0.62707 c 0.155465,1.79695 0.520511,3.56583 1.098757,5.28417 l -2.768445,1.88306 c -0.422883,0.28636 -0.715033,0.72626 -0.810491,1.23166 -0.09544,0.49976 0.01026,1.02014 0.299261,1.44319 l 4.868653,7.16535 c 0.286521,0.42114 0.730002,0.71317 1.233534,0.80863 0.499823,0.0954 1.020127,-0.0117 1.443172,-0.29761 l 2.766586,-1.87932 c 1.386982,1.16427 2.897591,2.15634 4.511084,2.96497 l -0.627059,3.2832 c -0.198444,1.04448 0.486558,2.05525 1.533001,2.25554 l 8.511202,1.62101 c 0.119913,0.0223 0.23983,0.0356 0.362928,0.0356 0.904138,0 1.714625,-0.64018 1.888714,-1.56673 l 0.625203,-3.28505 c 1.798778,-0.15536 3.56954,-0.52037 5.287878,-1.0969 l 1.881179,2.77031 c 0.2844,0.42118 0.730049,0.7113 1.231675,0.80675 0.501414,0.0954 1.020178,-0.0117 1.443171,-0.29575 l 7.167254,-4.87237 c 0.876015,-0.59711 1.106241,-1.79696 0.505127,-2.67484 l -1.879321,-2.77031 c 1.168002,-1.38328 2.160114,-2.89572 2.964977,-4.50924 l 3.2888,0.62893 c 1.042622,0.19469 2.051553,-0.48856 2.251801,-1.53302 l 1.622884,-8.50933 c 0.0971,-0.50354 -0.01056,-1.02202 -0.299256,-1.44505 -0.284401,-0.42119 -0.728139,-0.71317 -1.229766,-0.80863" />
    <path
       inkscape:connector-curvature="0"
       id="path442"
       style="fill:#000000;fill-opacity:1;fill-rule:nonzero;stroke:none;stroke-width:0.18718289"
       d="m -57.089854,111.3204 c -0.497699,2.62243 -1.987881,4.89109 -4.198508,6.39229 -2.206913,1.50121 -4.864887,2.04965 -7.48731,1.55175 v 0 c -2.620566,-0.49977 -4.88924,-1.99163 -6.392316,-4.20038 -1.501218,-2.20689 -2.049643,-4.86489 -1.549873,-7.48732 0.4977,-2.62056 1.991648,-4.89109 4.198508,-6.39229 1.675307,-1.13807 3.614533,-1.731445 5.594935,-1.731445 0.628916,0 1.2616,0.06177 1.892374,0.181571 5.413365,1.033244 8.975423,6.274374 7.94219,11.685824 z m -7.215909,-15.472537 c -3.635067,-0.690704 -7.318844,0.07301 -10.379275,2.150733 -3.058574,2.077734 -5.12509,5.224274 -5.815769,8.853754 -0.692589,3.63509 0.06738,7.32072 2.146956,10.37742 2.075855,3.05855 5.222401,5.12506 8.857523,5.81951 v 0 c 0.870391,0.1647 1.740783,0.24519 2.598068,0.24519 6.510267,0 12.327894,-4.62528 13.595119,-11.24969 1.430065,-7.49668 -3.50592,-14.763116 -11.002622,-16.196938" />
    <path
       inkscape:connector-curvature="0"
       id="path444"
       style="fill:#000000;fill-opacity:1;fill-rule:nonzero;stroke:none;stroke-width:0.18718289"
       d="m -116.43805,95.963915 -1.31964,1.763264 -2.89574,-2.165705 1.32342,-1.76326 c 0.40961,-0.548446 0.38202,-1.312156 -0.0732,-1.826909 -1.19051,-1.35333 -2.1077,-2.895719 -2.7198,-4.578491 -0.23399,-0.643911 -0.89283,-1.036994 -1.56669,-0.937787 l -2.17693,0.312574 -0.51468,-3.578937 2.1807,-0.314484 c 0.67571,-0.09546 1.19422,-0.657012 1.23725,-1.340225 0.11406,-1.787598 0.55782,-3.522783 1.32156,-5.158762 0.29023,-0.621446 0.10512,-1.360817 -0.44359,-1.770751 l -1.76513,-1.323384 2.16755,-2.893846 1.76513,1.323385 c 0.55033,0.411796 1.31031,0.378102 1.82503,-0.07301 1.35335,-1.194231 2.89575,-2.10768 4.57853,-2.719773 0.64575,-0.233993 1.037,-0.889115 0.93778,-1.566719 l -0.31252,-2.178808 3.57898,-0.514732 0.31464,2.178813 c 0.0977,0.679471 0.65704,1.197966 1.34024,1.241018 1.78758,0.112333 3.5228,0.555934 5.15878,1.321511 0.62144,0.288273 1.35892,0.104842 1.77072,-0.44549 l 1.323408,-1.763258 2.893826,2.167573 -1.321502,1.765138 c -0.411741,0.548446 -0.383621,1.310278 0.07111,1.823157 1.194215,1.355204 2.109547,2.893851 2.71974,4.578497 0.23399,0.643907 0.887271,1.035121 1.566752,0.937783 l 2.18256,-0.312575 0.509368,3.58081 -2.178792,0.312575 c -0.677574,0.09546 -1.194215,0.658884 -1.239151,1.342102 -0.114063,1.785725 -0.555917,3.52091 -1.321517,5.158763 -0.291828,0.619572 -0.105119,1.360817 0.445711,1.768878 l 1.76513,1.323379 -2.167591,2.893849 -1.766992,-1.32151 c -0.548426,-0.411796 -1.310257,-0.379961 -1.82313,0.07301 -1.35521,1.192352 -2.8976,2.105806 -4.58039,2.719765 -0.64202,0.233995 -1.03514,0.885376 -0.93778,1.564848 l 0.31253,2.18068 -3.57894,0.514729 -0.31464,-2.178803 c -0.0954,-0.679477 -0.65699,-1.199844 -1.34024,-1.241024 -1.78757,-0.114181 -3.52464,-0.557806 -5.15687,-1.321511 -0.19844,-0.09173 -0.40591,-0.136627 -0.6121,-0.136627 -0.44729,0 -0.87972,0.205925 -1.16237,0.580265 z m 5.57054,3.651942 0.3539,2.487653 c 0.0579,0.37996 0.25628,0.72627 0.56715,0.95464 0.25256,0.18719 0.55782,0.28827 0.86853,0.28827 0.0636,0 0.13474,-0.006 0.20376,-0.0132 l 6.44473,-0.92656 c 0.79362,-0.11418 1.3421,-0.84794 1.22792,-1.63972 l -0.35762,-2.487667 c 1.24101,-0.550314 2.407148,-1.242891 3.489089,-2.072109 l 2.014046,1.510562 c 0.64208,0.477325 1.548015,0.346269 2.027197,-0.293897 l 3.902754,-5.21117 c 0.479137,-0.640165 0.350193,-1.548 -0.29023,-2.027193 l -2.014046,-1.50869 c 0.49028,-1.269104 0.829214,-2.585 1.007023,-3.92897 l 2.487656,-0.357517 c 0.382023,-0.05428 0.724417,-0.258295 0.950871,-0.565293 0.234005,-0.307004 0.329507,-0.692577 0.275393,-1.074427 l -0.926534,-6.444708 c -0.11245,-0.791784 -0.844241,-1.338356 -1.635996,-1.226045 l -2.491409,0.355659 c -0.546578,-1.241023 -1.242875,-2.407176 -2.070242,-3.487216 l 1.510557,-2.014089 c 0.228169,-0.308861 0.327381,-0.692578 0.273267,-1.07256 -0.0563,-0.381871 -0.258401,-0.724398 -0.563439,-0.954633 l -5.21307,-3.902809 c -0.307222,-0.232136 -0.694449,-0.329447 -1.074405,-0.275167 -0.379912,0.05427 -0.722512,0.260205 -0.952752,0.565293 l -1.5106,2.014088 c -1.26908,-0.490431 -2.58311,-0.827349 -3.93083,-1.007042 l -0.3555,-2.487662 c -0.11406,-0.791782 -0.84041,-1.338356 -1.6397,-1.227918 l -6.44283,0.924683 c -0.38202,0.05428 -0.72441,0.260204 -0.9565,0.567165 -0.22815,0.306951 -0.32579,0.694445 -0.27326,1.074427 l 0.35922,2.487663 c -1.23917,0.548446 -2.4053,1.241024 -3.49097,2.070242 l -2.01223,-1.508696 c -0.30722,-0.230225 -0.69258,-0.327591 -1.0744,-0.275167 -0.37991,0.05614 -0.72257,0.262061 -0.95279,0.567166 l -3.90276,5.211169 c -0.23188,0.307004 -0.32738,0.692579 -0.27326,1.072559 0.0531,0.381872 0.25628,0.724399 0.5653,0.95463 l 2.01409,1.508695 c -0.4924,1.270971 -0.82922,2.586867 -1.00701,3.930839 l -2.49143,0.355659 c -0.37831,0.05428 -0.72066,0.260204 -0.94902,0.567165 -0.23188,0.307004 -0.32738,0.694445 -0.27538,1.072555 l 0.92472,6.444706 c 0.11626,0.791784 0.84789,1.343976 1.6397,1.227924 l 2.48766,-0.355659 c 0.54842,1.237279 1.24478,2.405297 2.07213,3.485344 l -1.50869,2.01783 c -0.23028,0.307003 -0.32951,0.690705 -0.27538,1.070687 0.0563,0.37996 0.2584,0.724397 0.56715,0.954633 l 5.2093,3.904631 c 0.64202,0.47733 1.54988,0.34627 2.02906,-0.2939 l 1.50684,-2.014084 c 1.27094,0.492287 2.58497,0.829223 3.93268,1.007047" />
    <path
       inkscape:connector-curvature="0"
       id="path446"
       style="fill:#000000;fill-opacity:1;fill-rule:nonzero;stroke:none;stroke-width:0.18718289"
       d="m -116.015,83.525616 c -0.58589,-4.099305 2.26862,-7.912218 6.36606,-8.501844 0.36133,-0.0504 0.72064,-0.07672 1.07444,-0.07672 3.67254,0 6.89018,2.706661 7.42556,6.446575 0.58959,4.097436 -2.26682,7.910349 -6.3624,8.499975 -4.10299,0.585886 -7.91405,-2.268659 -8.50366,-6.367962 z m 8.9136,9.233731 c 5.67915,-0.814243 9.632466,-6.10029 8.820069,-11.77942 -0.81426,-5.677256 -6.100269,-9.634302 -11.777549,-8.821926 -5.68101,0.816117 -9.63618,6.100286 -8.82001,11.779416 0.74123,5.181223 5.20367,8.928623 10.2913,8.928623 0.48867,0 0.98643,-0.03768 1.48619,-0.106703" />
  </g>
</svg>
