<?xml version="1.0" encoding="UTF-8" standalone="no"?>
<!-- Created with Inkscape (http://www.inkscape.org/) -->

<svg
   xmlns:dc="http://purl.org/dc/elements/1.1/"
   xmlns:cc="http://creativecommons.org/ns#"
   xmlns:rdf="http://www.w3.org/1999/02/22-rdf-syntax-ns#"
   xmlns:svg="http://www.w3.org/2000/svg"
   xmlns="http://www.w3.org/2000/svg"
   xmlns:sodipodi="http://sodipodi.sourceforge.net/DTD/sodipodi-0.dtd"
   xmlns:inkscape="http://www.inkscape.org/namespaces/inkscape"
   width="157.5728mm"
   height="109.61371mm"
   viewBox="0 0 157.5728 109.61371"
   version="1.1"
   id="svg2394"
   inkscape:version="0.92.3 (2405546, 2018-03-11)"
   sodipodi:docname="programming.svg">
  <defs
     id="defs2388" />
  <sodipodi:namedview
     id="base"
     pagecolor="#ffffff"
     bordercolor="#666666"
     borderopacity="1.0"
     inkscape:pageopacity="0.0"
     inkscape:pageshadow="2"
     inkscape:zoom="0.35"
     inkscape:cx="1079.2015"
     inkscape:cy="-38.57028"
     inkscape:document-units="mm"
     inkscape:current-layer="layer1"
     showgrid="false"
     fit-margin-top="0"
     fit-margin-left="0"
     fit-margin-right="0"
     fit-margin-bottom="0"
     inkscape:window-width="1680"
     inkscape:window-height="982"
     inkscape:window-x="0"
     inkscape:window-y="32"
     inkscape:window-maximized="1" />
  <metadata
     id="metadata2391">
    <rdf:RDF>
      <cc:Work
         rdf:about="">
        <dc:format>image/svg+xml</dc:format>
        <dc:type
           rdf:resource="http://purl.org/dc/dcmitype/StillImage" />
        <dc:title></dc:title>
      </cc:Work>
    </rdf:RDF>
  </metadata>
  <g
     inkscape:label="Layer 1"
     inkscape:groupmode="layer"
     id="layer1"
     transform="translate(335.80957,-29.01457)">
    <path
       inkscape:connector-curvature="0"
       id="path284"
       style="fill:#000000;fill-opacity:1;fill-rule:nonzero;stroke:none;stroke-width:0.24694446"
       d="m -217.40667,96.78353 h -79.86678 V 44.601701 h 79.86678 z m 2.54352,-57.263948 H -299.812 c -1.40511,0 -2.54352,1.138417 -2.54352,2.541056 v 57.263955 c 0,1.405107 1.13841,2.543527 2.54352,2.543527 h 84.94885 c 1.40763,0 2.54352,-1.13842 2.54352,-2.543527 V 42.060638 c 0,-1.402639 -1.13589,-2.541056 -2.54352,-2.541056" />
    <path
       inkscape:connector-curvature="0"
       id="path286"
       style="fill:#000000;fill-opacity:1;fill-rule:nonzero;stroke:none;stroke-width:0.24694446"
       d="m -183.32829,133.54615 h -147.40117 v -1.81998 h 147.40117 z M -312.63831,121.51748 H -202.022 l 10.34698,5.12657 h -131.01886 z m 1.92864,-87.420798 h 106.73677 v 82.338688 h -106.73677 z m 132.419,94.673568 c -0.028,-0.0595 -0.028,-0.11851 -0.049,-0.17535 0,-0.0939 -0.049,-0.18522 -0.0742,-0.27657 -0.028,-0.0595 -0.028,-0.11361 -0.0742,-0.16793 -0.028,-0.10374 -0.0987,-0.19754 -0.1484,-0.29141 -0.028,-0.0343 -0.028,-0.0716 -0.049,-0.10619 -0.0987,-0.12593 -0.1974,-0.24444 -0.2961,-0.3507 -0.028,-0.0294 -0.0742,-0.0469 -0.0987,-0.0765 -0.0742,-0.0765 -0.1729,-0.15064 -0.2471,-0.2198 -0.049,-0.0322 -0.0987,-0.0595 -0.1729,-0.0914 -0.049,-0.0322 -0.0987,-0.0741 -0.1729,-0.10619 l -19.21171,-9.5098 V 31.558097 c 0,-1.405117 -1.13596,-2.543527 -2.54359,-2.543527 h -111.82136 c -1.40266,0 -2.54107,1.13841 -2.54107,2.543527 v 85.862583 l -18.63687,9.49995 c -0.056,0.0294 -0.1015,0.0665 -0.1533,0.0963 -0.056,0.0322 -0.1064,0.0644 -0.1554,0.0988 -0.0861,0.0595 -0.1631,0.13335 -0.2422,0.19754 -0.035,0.0371 -0.0742,0.0644 -0.1064,0.0963 -0.1085,0.10864 -0.2072,0.2247 -0.2891,0.3556 -0.014,0.0126 -0.021,0.0294 -0.028,0.0469 -0.0714,0.10864 -0.133,0.2247 -0.1904,0.34573 -0.021,0.0546 -0.042,0.10619 -0.056,0.16051 -0.035,0.0914 -0.07,0.18767 -0.091,0.28399 -0.007,0.0567 -0.021,0.11606 -0.028,0.17283 -0.021,0.10129 -0.028,0.20251 -0.035,0.3087 0,0.0343 -0.007,0.0665 -0.007,0.10129 v 6.9021 c 0,1.40264 1.13841,2.54106 2.54352,2.54106 h 152.48576 c 1.40756,0 2.54352,-1.13842 2.54352,-2.54106 v -6.9021 c 0,-0.0343 -0.028,-0.0665 -0.028,-0.10374 0,-0.10619 0,-0.20993 -0.028,-0.31115" />
    <path
       inkscape:connector-curvature="0"
       id="path288"
       style="fill:#000000;fill-opacity:1;fill-rule:nonzero;stroke:none;stroke-width:0.24694446"
       d="m -256.32506,111.18533 c -1.3335,0 -2.42011,-1.08408 -2.42011,-2.41511 0,-1.33104 1.08661,-2.41019 2.42011,-2.41019 1.3335,0 2.42004,1.07915 2.42004,2.41019 0,1.33103 -1.08654,2.41511 -2.42004,2.41511 z m 0,-7.88 c -3.01273,0 -5.45748,2.45216 -5.45748,5.46489 0,3.01271 2.44475,5.46241 5.45748,5.46241 3.01266,0 5.45741,-2.4497 5.45741,-5.46241 0,-3.01273 -2.44475,-5.46489 -5.45741,-5.46489" />
  </g>
</svg>
