<?xml version="1.0" encoding="UTF-8" standalone="no"?>
<svg
   id="Layer_1"
   data-name="Layer 1"
   viewBox="0 0 2011.15 783.72"
   version="1.1"
   sodipodi:docname="rgb_structure.svg"
   inkscape:version="1.2.1 (9c6d41e410, 2022-07-14)"
   inkscape:export-filename="rgb_structure.png"
   inkscape:export-xdpi="96"
   inkscape:export-ydpi="96"
   xmlns:inkscape="http://www.inkscape.org/namespaces/inkscape"
   xmlns:sodipodi="http://sodipodi.sourceforge.net/DTD/sodipodi-0.dtd"
   xmlns="http://www.w3.org/2000/svg"
   xmlns:svg="http://www.w3.org/2000/svg">
  <sodipodi:namedview
     id="namedview111"
     pagecolor="#ffffff"
     bordercolor="#666666"
     borderopacity="1.0"
     inkscape:showpageshadow="2"
     inkscape:pageopacity="0.0"
     inkscape:pagecheckerboard="0"
     inkscape:deskcolor="#d1d1d1"
     showgrid="false"
     inkscape:zoom="0.62252939"
     inkscape:cx="1005.575"
     inkscape:cy="391.94937"
     inkscape:window-width="1920"
     inkscape:window-height="1011"
     inkscape:window-x="0"
     inkscape:window-y="32"
     inkscape:window-maximized="1"
     inkscape:current-layer="Layer_1" />
  <defs
     id="defs4">
    <style
       id="style2">.cls-1{fill:red;}.cls-1,.cls-12,.cls-13,.cls-14,.cls-15,.cls-16,.cls-17,.cls-3,.cls-4{stroke:#fff;}.cls-1,.cls-12,.cls-13,.cls-14,.cls-15,.cls-16,.cls-17,.cls-18,.cls-3,.cls-4,.cls-5{stroke-miterlimit:10;}.cls-1,.cls-12,.cls-13,.cls-14,.cls-15,.cls-16,.cls-17,.cls-3,.cls-4,.cls-5{stroke-width:2px;}.cls-2,.cls-6{font-size:46.39px;}.cls-2{fill:#fff;font-family:Roboto-Regular, Roboto;}.cls-3{fill:green;}.cls-4{fill:blue;}.cls-5{fill:none;}.cls-18,.cls-5{stroke:#000;}.cls-6{font-family:MyriadPro-Regular, Myriad Pro;}.cls-7{letter-spacing:0em;}.cls-8{letter-spacing:0em;}.cls-9{letter-spacing:0.01em;}.cls-10{letter-spacing:0em;}.cls-11{letter-spacing:-0.01em;}.cls-12{fill:#b30000;}.cls-13{fill:#ff1919;}.cls-14{fill:#17aa17;}.cls-15{fill:#016801;}.cls-16{fill:#5050ff;}.cls-17{fill:#0000ce;}.cls-18{fill:#f33;stroke-width:4px;}</style>
  </defs>
  <path
     class="cls-1"
     d="M1230.68,397.85H1383.6a0,0,0,0,1,0,0V550.77a0,0,0,0,1,0,0H1239.5a8.82,8.82,0,0,1-8.82-8.82V397.85A0,0,0,0,1,1230.68,397.85Z"
     id="path10" />
  <rect
     class="cls-1"
     x="1230.68"
     y="244.89"
     width="152.92"
     height="152.92"
     id="rect12" />
  <rect
     class="cls-1"
     x="1384.26"
     y="91.92"
     width="152.92"
     height="152.92"
     id="rect14" />
  <g
     id="g14719">
    <path
       class="cls-1"
       d="M1239.5,91.92h144.1a0,0,0,0,1,0,0V244.84a0,0,0,0,1,0,0H1230.68a0,0,0,0,1,0,0V100.74A8.82,8.82,0,0,1,1239.5,91.92Z"
       id="path6"
       style="stroke-linejoin:round;stroke-width:5;stroke-dasharray:none;stroke:#000000;stroke-opacity:1" />
    <text
       class="cls-2"
       transform="translate(1261.96,185.48)"
       id="text8">255</text>
  </g>
  <rect
     class="cls-1"
     x="1384.26"
     y="397.85"
     width="152.92"
     height="152.92"
     id="rect16" />
  <rect
     class="cls-1"
     x="1384.26"
     y="244.89"
     width="152.92"
     height="152.92"
     id="rect18" />
  <path
     class="cls-1"
     d="M1536.61,91.92h144.1a8.82,8.82,0,0,1,8.82,8.82v144.1a0,0,0,0,1,0,0H1536.61a0,0,0,0,1,0,0V91.92A0,0,0,0,1,1536.61,91.92Z"
     id="path20" />
  <path
     class="cls-1"
     d="M1536.61,397.85h152.92a0,0,0,0,1,0,0v144.1a8.82,8.82,0,0,1-8.82,8.82h-144.1a0,0,0,0,1,0,0V397.85A0,0,0,0,1,1536.61,397.85Z"
     id="path22" />
  <rect
     class="cls-1"
     x="1536.61"
     y="244.89"
     width="152.92"
     height="152.92"
     id="rect24" />
  <path
     class="cls-3"
     d="M1346.66,512.38h152.92a0,0,0,0,1,0,0V665.3a0,0,0,0,1,0,0h-144.1a8.82,8.82,0,0,1-8.82-8.82V512.38A0,0,0,0,1,1346.66,512.38Z"
     id="path30" />
  <rect
     class="cls-3"
     x="1346.66"
     y="359.42"
     width="152.92"
     height="152.92"
     id="rect32" />
  <rect
     class="cls-3"
     x="1498.79"
     y="206.45"
     width="152.92"
     height="152.92"
     id="rect34" />
  <rect
     class="cls-3"
     x="1498.79"
     y="512.38"
     width="152.92"
     height="152.92"
     id="rect36" />
  <rect
     class="cls-3"
     x="1498.79"
     y="359.42"
     width="152.92"
     height="152.92"
     id="rect38" />
  <g
     id="g14715">
    <path
       class="cls-3"
       d="M1355.48,206.45h144.1a0,0,0,0,1,0,0V359.37a0,0,0,0,1,0,0H1346.66a0,0,0,0,1,0,0V215.27A8.82,8.82,0,0,1,1355.48,206.45Z"
       id="path26"
       style="stroke-linejoin:round;stroke:#000000;stroke-opacity:1;stroke-width:4;stroke-dasharray:none" />
    <text
       class="cls-2"
       id="text28"
       x="1398.49"
       y="300.01001">51</text>
  </g>
  <path
     class="cls-3"
     d="M1651.14,206.45h144.1a8.82,8.82,0,0,1,8.82,8.82v144.1a0,0,0,0,1,0,0H1651.14a0,0,0,0,1,0,0V206.45A0,0,0,0,1,1651.14,206.45Z"
     id="path40" />
  <path
     class="cls-3"
     d="M1651.14,512.38h152.92a0,0,0,0,1,0,0v144.1a8.82,8.82,0,0,1-8.82,8.82h-144.1a0,0,0,0,1,0,0V512.38A0,0,0,0,1,1651.14,512.38Z"
     id="path42" />
  <rect
     class="cls-3"
     x="1651.14"
     y="359.42"
     width="152.92"
     height="152.92"
     id="rect44" />
  <path
     class="cls-4"
     d="M1461.19,629.81h152.92a0,0,0,0,1,0,0V782.72a0,0,0,0,1,0,0H1470a8.82,8.82,0,0,1-8.82-8.82V629.81A0,0,0,0,1,1461.19,629.81Z"
     id="path50" />
  <rect
     class="cls-4"
     x="1461.19"
     y="476.85"
     width="152.92"
     height="152.92"
     id="rect52" />
  <rect
     class="cls-4"
     x="1613.32"
     y="323.88"
     width="152.92"
     height="152.92"
     id="rect54" />
  <rect
     class="cls-4"
     x="1613.32"
     y="629.81"
     width="152.92"
     height="152.92"
     id="rect56" />
  <rect
     class="cls-4"
     x="1613.32"
     y="476.85"
     width="152.92"
     height="152.92"
     id="rect58" />
  <path
     class="cls-4"
     d="M1765.67,323.88h144.1a8.82,8.82,0,0,1,8.82,8.82V476.8a0,0,0,0,1,0,0H1765.67a0,0,0,0,1,0,0V323.88A0,0,0,0,1,1765.67,323.88Z"
     id="path60" />
  <path
     class="cls-4"
     d="M1765.67,629.81h152.92a0,0,0,0,1,0,0v144.1a8.82,8.82,0,0,1-8.82,8.82h-144.1a0,0,0,0,1,0,0V629.81A0,0,0,0,1,1765.67,629.81Z"
     id="path62" />
  <rect
     class="cls-4"
     x="1765.67"
     y="476.85"
     width="152.92"
     height="152.92"
     id="rect64" />
  <polyline
     class="cls-5"
     points="1537.01 90.89 1617.26 10.91 2000.92 395.87 1920.67 475.85"
     id="polyline66" />
  <circle
     cx="1808.7"
     cy="203.44"
     r="9.63"
     id="circle68" />
  <circle
     cx="1617.26"
     cy="11.63"
     r="9.63"
     id="circle70" />
  <circle
     cx="2001.52"
     cy="396.26"
     r="9.63"
     id="circle72" />
  <path
     class="cls-12"
     d="M 347.64,622.84 H 201.12 c -4.26,0 -7.12,-2.84 -7.12,-6.39 l 0.72,-146.52 h 152.92 z"
     id="path92"
     style="fill:#001580;fill-opacity:1" />
  <rect
     class="cls-13"
     x="194.72"
     y="316.96002"
     width="152.92"
     height="152.92"
     id="rect94"
     style="fill:#44cc00;fill-opacity:1" />
  <rect
     class="cls-14"
     x="347.57001"
     y="164"
     width="152.92"
     height="152.92"
     id="rect96"
     style="fill:#ffb319;fill-opacity:1" />
  <rect
     class="cls-15"
     x="347.57001"
     y="469.92999"
     width="152.92"
     height="152.92"
     id="rect98"
     style="fill:#110066;fill-opacity:1" />
  <rect
     class="cls-3"
     x="347.57001"
     y="316.96002"
     width="152.92"
     height="152.92"
     id="rect100"
     style="fill:#00b377;fill-opacity:1" />
  <path
     class="cls-4"
     d="m 1470,323.88 h 144.1 V 476.8 H 1461.19 V 332.7 a 8.82,8.82 0 0 1 8.81,-8.82 z"
     id="path46"
     style="stroke:#000000;stroke-width:4;stroke-linejoin:round;stroke-dasharray:none;stroke-opacity:1;paint-order:normal" />
  <text
     class="cls-2"
     id="text48"
     x="1542.5681"
     y="417.44"
     style="text-align:center;text-anchor:middle">51</text>
  <path
     class="cls-16"
     d="M 499.93,164 H 644 a 8.82,8.82 0 0 1 8.82,8.82 v 144.1 H 499.93 Z"
     id="path102"
     style="fill:#bfe600;fill-opacity:1" />
  <path
     class="cls-17"
     d="M 499.93,469.93 H 652.84 V 614 a 8.82,8.82 0 0 1 -8.82,8.82 H 499.93 Z"
     id="path104"
     style="fill:#40004d;fill-opacity:1" />
  <rect
     class="cls-4"
     x="499.92999"
     y="316.96002"
     width="152.92"
     height="152.92"
     id="rect106"
     style="fill:#008099;fill-opacity:1" />
  <text
     class="cls-2"
     id="text8-6"
     style="font-size:46.39px;font-family:Roboto-Regular, Roboto;fill:#ffffff"
     x="1419.5009"
     y="184.28729">255</text>
  <text
     class="cls-2"
     id="text48-7"
     x="1688.35"
     y="420.23349"
     style="font-size:46.39px;font-family:Roboto-Regular, Roboto;text-align:center;text-anchor:middle;fill:#ffffff">25</text>
  <text
     class="cls-2"
     id="text28-5"
     x="1536.4777"
     y="302.09866"
     style="font-size:46.39px;font-family:Roboto-Regular, Roboto;fill:#ffffff">179</text>
  <text
     class="cls-2"
     id="text8-6-3"
     style="font-size:46.39px;font-family:Roboto-Regular, Roboto;fill:#ffffff"
     x="1570.1552"
     y="186.33296">191</text>
  <text
     class="cls-2"
     id="text8-6-3-5"
     style="font-size:46.39px;font-family:Roboto-Regular, Roboto;fill:#ffffff"
     x="1684.7194"
     y="301.13898">230</text>
  <text
     class="cls-2"
     id="text8-6-3-6"
     style="font-size:46.39px;font-family:Roboto-Regular, Roboto;fill:#ffffff"
     x="1828.6542"
     y="422.62161">0</text>
  <text
     class="cls-2"
     id="text8-2"
     style="font-size:46.39px;font-family:Roboto-Regular, Roboto;fill:#ffffff"
     x="1263.326"
     y="336.7558">68</text>
  <text
     class="cls-2"
     id="text28-9"
     x="1380.4962"
     y="454.10114"
     style="font-size:46.39px;font-family:Roboto-Regular, Roboto;fill:#ffffff">204</text>
  <text
     class="cls-2"
     id="text48-1"
     x="1540.9794"
     y="571.17664"
     style="font-size:46.39px;font-family:Roboto-Regular, Roboto;text-align:center;text-anchor:middle;fill:#ffffff">0</text>
  <text
     class="cls-2"
     id="text8-2-2"
     style="font-size:46.39px;font-family:Roboto-Regular, Roboto;fill:#ffffff"
     x="1276.9791"
     y="489.61224">0</text>
  <text
     class="cls-2"
     id="text28-9-7"
     x="1393.7512"
     y="612.21954"
     style="font-size:46.39px;font-family:Roboto-Regular, Roboto;fill:#ffffff">21</text>
  <text
     class="cls-2"
     id="text48-1-0"
     x="1538.4873"
     y="725.93475"
     style="font-size:46.39px;font-family:Roboto-Regular, Roboto;text-align:center;text-anchor:middle;fill:#ffffff">128</text>
  <text
     class="cls-2"
     id="text48-7-9"
     x="1687.9106"
     y="572.61151"
     style="font-size:46.39px;font-family:Roboto-Regular, Roboto;text-align:center;text-anchor:middle;fill:#ffffff">119</text>
  <text
     class="cls-2"
     id="text48-7-9-3"
     x="1688.8911"
     y="727.94861"
     style="font-size:46.39px;font-family:Roboto-Regular, Roboto;text-align:center;text-anchor:middle;fill:#ffffff">102</text>
  <path
     class="cls-18"
     d="M 347.64,316.92 H 194.72 L 194,170.39 c 0,-3.53 2.86,-6.39 7.12,-6.39 h 146.52 z"
     id="path108" />
  <text
     class="cls-2"
     id="text8-6-3-6-6"
     style="font-size:46.39px;font-family:Roboto-Regular, Roboto;fill:#ffffff"
     x="1802.9659"
     y="574.04724">153</text>
  <text
     class="cls-2"
     id="text8-6-3-6-6-0"
     style="font-size:46.39px;font-family:Roboto-Regular, Roboto;fill:#ffffff"
     x="1817.9575"
     y="729.00793">77</text>
  <text
     xml:space="preserve"
     style="font-style:normal;font-weight:normal;font-size:74.6667px;line-height:1.25;font-family:sans-serif;fill:#000000;fill-opacity:1;stroke:none"
     x="33.491909"
     y="90.549171"
     id="text14788"><tspan
       sodipodi:role="line"
       id="tspan14786"
       x="33.491909"
       y="90.549171"
       style="font-size:74.6667px">A</tspan></text>
  <text
     xml:space="preserve"
     style="font-style:normal;font-weight:normal;font-size:74.6667px;line-height:1.25;font-family:sans-serif;fill:#000000;fill-opacity:1;stroke:none"
     x="1046.9468"
     y="91.099838"
     id="text14788-6"><tspan
       sodipodi:role="line"
       id="tspan14786-2"
       x="1046.9468"
       y="91.099838"
       style="font-size:74.6667px">B</tspan></text>
</svg>
