<?xml version="1.0" encoding="UTF-8" standalone="no"?>
<!-- Created with Inkscape (http://www.inkscape.org/) -->

<svg
   width="690.461mm"
   height="302.15799mm"
   viewBox="0 0 690.461 302.15798"
   version="1.1"
   id="svg198"
   inkscape:version="1.2.1 (9c6d41e410, 2022-07-14)"
   sodipodi:docname="causal_diagram.svg"
   xmlns:inkscape="http://www.inkscape.org/namespaces/inkscape"
   xmlns:sodipodi="http://sodipodi.sourceforge.net/DTD/sodipodi-0.dtd"
   xmlns="http://www.w3.org/2000/svg"
   xmlns:svg="http://www.w3.org/2000/svg">
  <sodipodi:namedview
     id="namedview200"
     pagecolor="#ffffff"
     bordercolor="#666666"
     borderopacity="1.0"
     inkscape:showpageshadow="2"
     inkscape:pageopacity="0.0"
     inkscape:pagecheckerboard="0"
     inkscape:deskcolor="#d1d1d1"
     inkscape:document-units="mm"
     showgrid="false"
     inkscape:zoom="0.75277076"
     inkscape:cx="880.74621"
     inkscape:cy="646.9433"
     inkscape:window-width="1920"
     inkscape:window-height="1011"
     inkscape:window-x="0"
     inkscape:window-y="32"
     inkscape:window-maximized="1"
     inkscape:current-layer="layer1" />
  <defs
     id="defs195" />
  <g
     inkscape:label="Layer 1"
     inkscape:groupmode="layer"
     id="layer1"
     transform="translate(389.28685,75.337373)">
    <circle
       class="cls-1"
       cx="-2.7573309"
       cy="-23.611317"
       r="34.660416"
       id="circle6"
       style="fill:#eeeeee;stroke:#000000;stroke-width:0.264583;stroke-miterlimit:10" />
    <path
       d="m -4.3157203,-27.733532 2.8786652,-4.741333 h 2.5902697 l -4.2465608,6.418792 4.3788525,6.561666 h -2.5664574 l -3.0003732,-4.85775 -2.9977275,4.85775 h -2.5796865 l 4.3788516,-6.561666 -4.2465596,-6.418792 h 2.5664565 z"
       id="path8"
       style="stroke-width:0.264583" />
    <path
       d="m 2.8121521,-24.325698 a 0.76993749,0.76993749 0 0 1 0.1931458,-0.529167 0.72495832,0.72495832 0 0 1 0.5688542,-0.216958 0.74347916,0.74347916 0 0 1 0.5741458,0.216958 0.77258332,0.77258332 0 0 1 0.1957917,0.529167 0.73554166,0.73554166 0 0 1 -0.1957917,0.529166 0.75141666,0.75141666 0 0 1 -0.5741458,0.211667 0.69849999,0.69849999 0 0 1 -0.762,-0.735542 z m 1.3970001,9.577916 H 2.9312146 v -7.567083 h 1.2911667 z"
       id="path10"
       style="stroke-width:0.264583" />
    <circle
       class="cls-1"
       cx="253.43594"
       cy="-23.611317"
       r="34.660416"
       id="circle12"
       style="fill:#eeeeee;stroke:#000000;stroke-width:0.264583;stroke-miterlimit:10" />
    <path
       d="m 252.16877,-22.994844 3.02155,-9.726084 h 2.38125 l -5.21759,14.980709 q -1.21443,3.2385 -3.85233,3.2385 l -0.41804,-0.0344 -0.82815,-0.156104 v -1.799167 l 0.59796,0.04762 a 2.9553958,2.9553958 0 0 0 1.75948,-0.455083 q 0.62706,-0.45773 1.03717,-1.669521 l 0.49212,-1.322917 -4.63021,-12.834937 h 2.42359 z"
       id="path14"
       style="stroke-width:0.264583" />
    <path
       d="m 258.84421,-24.574407 a 0.76199999,0.76199999 0 0 1 0.19315,-0.529166 0.71437499,0.71437499 0 0 1 0.56885,-0.216959 0.73554166,0.73554166 0 0 1 0.57415,0.216959 0.76199999,0.76199999 0 0 1 0.19579,0.529166 0.69849999,0.69849999 0 0 1 -0.76994,0.732896 0.73024999,0.73024999 0 0 1 -0.56885,-0.209021 0.74083332,0.74083332 0 0 1 -0.19315,-0.523875 z m 1.39965,9.572625 h -1.29381 v -7.567083 h 1.29381 z"
       id="path16"
       style="stroke-width:0.264583" />
    <circle
       class="cls-1"
       cx="125.34067"
       cy="186.82214"
       r="34.660416"
       id="circle18"
       style="fill:#eeeeee;stroke:#000000;stroke-width:0.264583;stroke-miterlimit:10" />
    <path
       d="m 126.18742,189.65881 q -1.29646,1.524 -3.80471,1.524 -2.07698,0 -3.15912,-1.2065 -1.08215,-1.2065 -1.09802,-3.56923 v -8.4455 h 2.21985 v 8.38729 q 0,2.95011 2.39713,2.95011 2.54264,0 3.38402,-1.89442 v -9.44298 h 2.21721 v 12.98046 h -2.11667 z"
       id="path20"
       style="stroke-width:0.264583" />
    <path
       d="m 131.02401,186.1081 a 0.76993749,0.76993749 0 0 1 0.1905,-0.52916 0.85989582,0.85989582 0 0 1 1.143,0 0.74877082,0.74877082 0 0 1 0.19579,0.52916 0.79374999,0.79374999 0 0 1 -1.33879,0.52917 0.75406249,0.75406249 0 0 1 -0.1905,-0.52917 z m 1.397,9.57527 h -1.29382 v -7.56708 h 1.29382 z"
       id="path22"
       style="stroke-width:0.264583" />
    <line
       class="cls-2"
       x1="33.204849"
       y1="-23.611317"
       x2="210.9359"
       y2="-23.611317"
       id="line24"
       style="fill:none;stroke:#000000;stroke-width:0.926042px;stroke-miterlimit:10" />
    <polygon
       points="937.31,131.5 929.05,117.27 963.87,131.5 929.05,145.73 "
       id="polygon26"
       transform="matrix(0.26458333,0,0,0.26458333,-37.550029,-58.404031)" />
    <line
       class="cls-3"
       x1="243.86066"
       y1="11.522686"
       x2="148.83556"
       y2="160.34"
       id="line28"
       style="fill:#ffffff;stroke-width:0.264583" />
    <line
       class="cls-2"
       x1="240.34172"
       y1="17.033951"
       x2="148.83556"
       y2="160.34"
       id="line30"
       style="fill:none;stroke:#000000;stroke-width:0.926042px;stroke-miterlimit:10" />
    <polygon
       points="1049.3,286.67 1056.85,301.29 1063.6,264.29 1032.86,285.98 "
       id="polygon32"
       transform="matrix(0.26458333,0,0,0.26458333,-37.550029,-58.404031)" />
    <circle
       class="cls-1"
       cx="-344.43982"
       cy="-23.472588"
       r="34.660416"
       id="circle311"
       style="fill:#eeeeee;stroke:#000000;stroke-width:0.264583;stroke-miterlimit:10" />
    <path
       d="m -345.99785,-27.594804 2.87867,-4.741334 h 2.59027 l -4.24656,6.418792 4.37885,6.561667 h -2.56646 l -3.00037,-4.85775 -2.99773,4.85775 h -2.57969 l 4.37886,-6.561667 -4.24657,-6.418792 h 2.56646 z"
       id="path313"
       style="stroke-width:0.264583" />
    <path
       d="m -338.86997,-24.186971 a 0.76993749,0.76993749 0 0 1 0.19314,-0.529167 0.72495832,0.72495832 0 0 1 0.56886,-0.216958 0.74347916,0.74347916 0 0 1 0.57414,0.216958 0.77258332,0.77258332 0 0 1 0.19579,0.529167 0.73554166,0.73554166 0 0 1 -0.19579,0.529167 0.75141666,0.75141666 0 0 1 -0.57414,0.211666 0.69849999,0.69849999 0 0 1 -0.762,-0.735541 z m 1.397,9.577916 h -1.27794 v -7.567083 h 1.29117 z"
       id="path315"
       style="stroke-width:0.264583" />
    <circle
       class="cls-1"
       cx="-88.246117"
       cy="-23.472588"
       r="34.660416"
       id="circle317"
       style="fill:#eeeeee;stroke:#000000;stroke-width:0.264583;stroke-miterlimit:10" />
    <path
       d="m -89.51349,-22.856117 3.02154,-9.726083 h 2.38125 l -5.21759,14.980708 q -1.214434,3.2385 -3.852329,3.2385 l -0.41804,-0.0344 -0.828154,-0.156104 v -1.799167 l 0.597967,0.04762 a 2.9553958,2.9553958 0 0 0 1.759481,-0.455083 q 0.627054,-0.457729 1.037164,-1.669521 l 0.492117,-1.322916 -4.630206,-12.834938 h 2.423588 z"
       id="path319"
       style="stroke-width:0.264583" />
    <path
       d="m -82.83806,-24.435679 a 0.76199999,0.76199999 0 0 1 0.19315,-0.529167 0.71437499,0.71437499 0 0 1 0.56885,-0.216958 0.73554166,0.73554166 0 0 1 0.57415,0.216958 0.76199999,0.76199999 0 0 1 0.19579,0.529167 0.69849999,0.69849999 0 0 1 -0.76994,0.732895 0.73024999,0.73024999 0 0 1 -0.56885,-0.20902 0.74083332,0.74083332 0 0 1 -0.19315,-0.523875 z m 1.39965,9.572624 h -1.29381 v -7.567083 h 1.29381 z"
       id="path321"
       style="stroke-width:0.264583" />
    <circle
       class="cls-1"
       cx="-216.34164"
       cy="186.96091"
       r="34.660416"
       id="circle323"
       style="fill:#eeeeee;stroke:#000000;stroke-width:0.264583;stroke-miterlimit:10" />
    <path
       d="m -215.49487,189.79754 q -1.29644,1.524 -3.80468,1.524 -2.07697,0 -3.15911,-1.2065 -1.08215,-1.2065 -1.09802,-3.56923 v -8.4455 h 2.21984 v 8.38729 q 0,2.9501 2.39712,2.9501 2.54263,0 3.384,-1.89441 v -9.44298 h 2.2172 v 12.98046 h -2.11666 z"
       id="path325"
       style="stroke-width:0.264583" />
    <path
       d="m -210.65829,186.24683 a 0.76993749,0.76993749 0 0 1 0.1905,-0.52917 0.85989582,0.85989582 0 0 1 1.143,0 0.74877082,0.74877082 0 0 1 0.19579,0.52917 0.79374999,0.79374999 0 0 1 -1.33879,0.52917 0.75406249,0.75406249 0 0 1 -0.1905,-0.52917 z m 1.397,9.57527 h -1.29382 v -7.56708 h 1.29382 z"
       id="path327"
       style="stroke-width:0.264583" />
    <line
       class="cls-2"
       x1="-308.47769"
       y1="-23.472588"
       x2="-130.74615"
       y2="-23.472588"
       id="line329"
       style="fill:none;stroke:#000000;stroke-width:0.926042px;stroke-miterlimit:10" />
    <polygon
       points="937.31,131.5 929.05,117.27 963.87,131.5 929.05,145.73 "
       id="polygon331"
       transform="matrix(0.26458333,0,0,0.26458333,-379.23216,-58.265304)" />
    <line
       class="cls-3"
       x1="-335.98642"
       y1="11.661413"
       x2="-240.96118"
       y2="160.47876"
       id="line333"
       style="fill:#ffffff;stroke-width:0.264583" />
    <line
       class="cls-2"
       x1="-332.46747"
       y1="17.17268"
       x2="-240.96118"
       y2="160.47876"
       id="line335"
       style="fill:none;stroke:#000000;stroke-width:0.926042px;stroke-miterlimit:10" />
    <polygon
       points="177.74,286.67 194.18,285.98 163.45,264.29 170.2,301.3 "
       id="polygon337"
       transform="matrix(0.26458333,0,0,0.26458333,-379.23216,-58.265304)" />
    <line
       class="cls-3"
       x1="-97.821358"
       y1="11.661413"
       x2="-192.84653"
       y2="160.47876"
       id="line339"
       style="fill:#ffffff;stroke-width:0.264583" />
    <line
       class="cls-2"
       x1="-101.34035"
       y1="17.17268"
       x2="-192.84653"
       y2="160.47876"
       id="line341"
       style="fill:none;stroke:#000000;stroke-width:0.926042px;stroke-miterlimit:10" />
    <polygon
       points="1049.3,286.67 1056.85,301.29 1063.6,264.29 1032.86,285.98 "
       id="polygon343"
       transform="matrix(0.26458333,0,0,0.26458333,-379.23216,-58.265304)" />
  </g>
</svg>
