<?xml version="1.0" encoding="UTF-8" standalone="no"?>
<svg
   id="Layer_1"
   data-name="Layer 1"
   viewBox="0 0 459.46 440.88"
   version="1.1"
   sodipodi:docname="dataframe.svg"
   inkscape:export-filename="/home/umatter/Dropbox/Teaching/HSG/datahandling/datahandling/img/dataframe.png"
   inkscape:export-xdpi="96"
   inkscape:export-ydpi="96"
   inkscape:version="1.1.2 (0a00cf5339, 2022-02-04)"
   xmlns:inkscape="http://www.inkscape.org/namespaces/inkscape"
   xmlns:sodipodi="http://sodipodi.sourceforge.net/DTD/sodipodi-0.dtd"
   xmlns="http://www.w3.org/2000/svg"
   xmlns:svg="http://www.w3.org/2000/svg">
  <sodipodi:namedview
     id="namedview67"
     pagecolor="#ffffff"
     bordercolor="#666666"
     borderopacity="1.0"
     inkscape:pageshadow="2"
     inkscape:pageopacity="0.0"
     inkscape:pagecheckerboard="0"
     showgrid="false"
     inkscape:zoom="1.6308292"
     inkscape:cx="229.94437"
     inkscape:cy="220.13341"
     inkscape:window-width="1680"
     inkscape:window-height="981"
     inkscape:window-x="0"
     inkscape:window-y="32"
     inkscape:window-maximized="1"
     inkscape:current-layer="Layer_1" />
  <defs
     id="defs4">
    <style
       id="style2">.cls-1{fill:#eee;}.cls-1,.cls-3,.cls-4{stroke:#000;stroke-miterlimit:10;}.cls-2{font-size:56px;}.cls-2,.cls-5,.cls-7{font-family:Roboto-Regular, Roboto;}.cls-3{fill:none;stroke-width:2px;}.cls-4{fill:#d1d1d1;}.cls-5{font-size:34px;}.cls-6{letter-spacing:-0.01em;}.cls-7{font-size:35px;}.cls-8{letter-spacing:-0.01em;}</style>
  </defs>
  <path
     class="cls-1"
     d="M9.32,63.92H117.14A8.82,8.82,0,0,1,126,72.74V189.38a0,0,0,0,1,0,0H.5a0,0,0,0,1,0,0V72.74A8.82,8.82,0,0,1,9.32,63.92Z"
     id="path6" />
  <text
     class="cls-2"
     transform="translate(47.51 140.68)"
     id="text8">1</text>
  <path
     class="cls-1"
     d="M.5,314.92H126a0,0,0,0,1,0,0V431.56a8.82,8.82,0,0,1-8.82,8.82H9.32A8.82,8.82,0,0,1,.5,431.56V314.92A0,0,0,0,1,.5,314.92Z"
     id="path10" />
  <text
     class="cls-2"
     transform="translate(47.51 391.68)"
     id="text12">3</text>
  <rect
     class="cls-1"
     x="0.5"
     y="189.42"
     width="125.46"
     height="125.46"
     id="rect14" />
  <text
     class="cls-2"
     transform="translate(47.51 266.18)"
     id="text16">2</text>
  <line
     class="cls-3"
     x1="63.23"
     y1="63"
     x2="63.23"
     y2="14"
     id="line18" />
  <path
     class="cls-4"
     d="M175.82,63.92H283.64a8.82,8.82,0,0,1,8.82,8.82V189.38a0,0,0,0,1,0,0H167a0,0,0,0,1,0,0V72.74A8.82,8.82,0,0,1,175.82,63.92Z"
     id="path20" />
  <text
     class="cls-5"
     transform="translate(174.22,140.68)"
     id="text26"
     inkscape:export-filename="/home/umatter/Dropbox/Teaching/HSG/datahandling/datahandling/img/text26.png"
     inkscape:export-xdpi="96"
     inkscape:export-ydpi="96"><tspan
       x="18.440001"
       y="0"
       id="tspan24">Male</tspan></text>
  <path
     class="cls-4"
     d="M167,314.92H292.46a0,0,0,0,1,0,0V431.56a8.82,8.82,0,0,1-8.82,8.82H175.82a8.82,8.82,0,0,1-8.82-8.82V314.92A0,0,0,0,1,167,314.92Z"
     id="path28" />
  <text
     class="cls-5"
     transform="translate(174.22 391.68)"
     id="text34"><tspan
       class="cls-6"
       id="tspan30">F</tspan><tspan
       x="18.44"
       y="0"
       id="tspan32">emale</tspan></text>
  <rect
     class="cls-1"
     x="167"
     y="189.42"
     width="125.46"
     height="125.46"
     id="rect36" />
  <text
     class="cls-5"
     transform="translate(192.51 266.18)"
     id="text38">Male</text>
  <line
     class="cls-3"
     x1="229.73"
     y1="63"
     x2="229.73"
     y2="14"
     id="line40" />
  <path
     class="cls-1"
     d="M342.32,63.92H450.14A8.82,8.82,0,0,1,459,72.74V189.38a0,0,0,0,1,0,0H333.5a0,0,0,0,1,0,0V72.74A8.82,8.82,0,0,1,342.32,63.92Z"
     id="path42" />
  <text
     class="cls-7"
     transform="translate(357.01 140.68)"
     id="text44">Andy</text>
  <path
     class="cls-1"
     d="M333.5,314.92H459a0,0,0,0,1,0,0V431.56a8.82,8.82,0,0,1-8.82,8.82H342.32a8.82,8.82,0,0,1-8.82-8.82V314.92A0,0,0,0,1,333.5,314.92Z"
     id="path46" />
  <text
     class="cls-7"
     transform="translate(351.8 391.68)"
     id="text52">Clai<tspan
   class="cls-8"
   x="58.81"
   y="0"
   id="tspan48">r</tspan><tspan
   x="70.32"
   y="0"
   id="tspan50">e</tspan></text>
  <rect
     class="cls-1"
     x="333.5"
     y="189.42"
     width="125.46"
     height="125.46"
     id="rect54" />
  <text
     class="cls-7"
     transform="translate(355.99 266.18)"
     id="text56">Brian</text>
  <polyline
     class="cls-3"
     points="396.23 63 396.23 14 63.23 14"
     id="polyline58" />
  <circle
     cx="62.59"
     cy="12"
     r="12"
     id="circle60" />
  <circle
     cx="229.59"
     cy="14"
     r="12"
     id="circle62" />
  <circle
     cx="395.59"
     cy="14"
     r="12"
     id="circle64" />
</svg>
