<svg id="Layer_1" data-name="Layer 1" xmlns="http://www.w3.org/2000/svg" viewBox="0 0 126.46 377.46"><defs><style>.cls-1{fill:#d1d1d1;}.cls-1,.cls-4{stroke:#000;stroke-miterlimit:10;}.cls-2{font-size:34px;font-family:Roboto-Regular, Roboto;}.cls-3{letter-spacing:-0.01em;}.cls-4{fill:#eee;}</style></defs><path class="cls-1" d="M9.32.5H117.14A8.82,8.82,0,0,1,126,9.32V126a0,0,0,0,1,0,0H.5a0,0,0,0,1,0,0V9.32A8.82,8.82,0,0,1,9.32.5Z"/><text class="cls-2" transform="translate(7.72 81.26)"><tspan class="cls-3">F</tspan><tspan x="18.44" y="0">emale</tspan></text><path class="cls-1" d="M.5,251.5H126a0,0,0,0,1,0,0V368.14a8.82,8.82,0,0,1-8.82,8.82H9.32A8.82,8.82,0,0,1,.5,368.14V251.5A0,0,0,0,1,.5,251.5Z"/><text class="cls-2" transform="translate(7.72 332.26)"><tspan class="cls-3">F</tspan><tspan x="18.44" y="0">emale</tspan></text><rect class="cls-4" x="0.5" y="126" width="125.46" height="125.46"/><text class="cls-2" transform="translate(26.01 206.76)">Male</text></svg>