<svg id="Layer_1" data-name="Layer 1" xmlns="http://www.w3.org/2000/svg" viewBox="0 0 2484.75 739"><defs><style>.cls-1{fill:#eee;}.cls-1,.cls-3,.cls-5{stroke:#000;stroke-miterlimit:10;}.cls-2{font-size:56px;font-family:Roboto-Regular, Roboto;}.cls-3,.cls-5{fill:none;stroke-width:2px;}.cls-4{letter-spacing:-0.01em;}.cls-5{stroke-dasharray:17.22 17.22;}</style></defs><rect class="cls-1" x="620" y="0.5" width="368.5" height="125" rx="8"/><text class="cls-2" transform="translate(689.52 79.36)">&lt;person&gt;</text><rect class="cls-1" x="0.5" y="309.5" width="368.5" height="125" rx="8"/><text class="cls-2" transform="translate(31.75 388.36)">&lt;firstName&gt;</text><rect class="cls-1" x="413.5" y="309.5" width="368.5" height="125" rx="8"/><text class="cls-2" transform="translate(448.71 388.36)">&lt;lastName&gt;</text><polyline class="cls-3" points="179.75 308.9 179.75 233.9 602.75 233.9 602.75 308.9"/><rect class="cls-1" x="826.5" y="309.5" width="368.5" height="125" rx="8"/><text class="cls-2" transform="translate(936.12 388.36)">&lt;age&gt;</text><rect class="cls-1" x="1385.5" y="309.5" width="368.5" height="125" rx="8"/><text class="cls-2" transform="translate(1441.15 388.36)">&lt;add<tspan class="cls-4" x="122.09" y="0">r</tspan><tspan x="140.52" y="0">ess&gt;</tspan></text><polyline class="cls-3" points="1005.75 308.9 1005.75 233.9 1574.75 233.9 1574.75 308.9"/><line class="cls-3" x1="602.75" y1="233.9" x2="1005.75" y2="233.9"/><line class="cls-3" x1="804.25" y1="127.2" x2="804.25" y2="231.2"/><rect class="cls-1" x="663.25" y="613.5" width="476" height="125" rx="8"/><text class="cls-2" transform="translate(700.5 692.36)">&lt;st<tspan class="cls-4" x="75.63" y="0">r</tspan><tspan x="94.06" y="0">eetAdd</tspan><tspan class="cls-4" x="271.39" y="0">r</tspan><tspan x="289.82" y="0">ess&gt;</tspan></text><rect class="cls-1" x="2008.25" y="613.5" width="476" height="125" rx="8"/><text class="cls-2" transform="translate(2077.78 692.36)">&lt;postalCode&gt;</text><rect class="cls-1" x="1183.25" y="613.5" width="368.5" height="125" rx="8"/><text class="cls-2" transform="translate(1294.79 692.36)">&lt;city&gt;</text><polyline class="cls-3" points="898.75 612.9 898.75 537.9 1365.75 537.9 1365.75 612.9"/><rect class="cls-1" x="1595.75" y="613.5" width="368.5" height="125" rx="8"/><text class="cls-2" transform="translate(1688.34 692.36)">&lt;state&gt;</text><polyline class="cls-3" points="1768.75 612.9 1768.75 537.9 2244.75 537.9 2244.75 612.9"/><line class="cls-3" x1="1365.75" y1="537.9" x2="1768.75" y2="537.9"/><line class="cls-3" x1="1567.25" y1="433" x2="1567.25" y2="537"/><line class="cls-3" x1="1574.75" y1="233.9" x2="1582.75" y2="233.9"/><line class="cls-5" x1="1599.97" y1="233.9" x2="1729.14" y2="233.9"/><line class="cls-3" x1="1737.75" y1="233.9" x2="1745.75" y2="233.9"/></svg>