<svg id="Layer_1" data-name="Layer 1" xmlns="http://www.w3.org/2000/svg" viewBox="0 0 377.46 377.46"><defs><style>.cls-1{fill:#eee;stroke:#000;stroke-miterlimit:10;}.cls-2{font-size:56px;font-family:Roboto-Regular, Roboto;}</style></defs><path class="cls-1" d="M9.32.5H126a0,0,0,0,1,0,0V126a0,0,0,0,1,0,0H.5a0,0,0,0,1,0,0V9.32A8.82,8.82,0,0,1,9.32.5Z"/><text class="cls-2" transform="translate(47.51 77.26)">1</text><path class="cls-1" d="M.5,251.5H126a0,0,0,0,1,0,0V377a0,0,0,0,1,0,0H9.32A8.82,8.82,0,0,1,.5,368.14V251.5A0,0,0,0,1,.5,251.5Z"/><text class="cls-2" transform="translate(47.51 328.26)">3</text><rect class="cls-1" x="0.5" y="126" width="125.46" height="125.46"/><text class="cls-2" transform="translate(47.51 202.76)">2</text><rect class="cls-1" x="126.5" y="0.5" width="125.46" height="125.46"/><text class="cls-2" transform="translate(173.51 77.26)">4</text><rect class="cls-1" x="126.5" y="251.5" width="125.46" height="125.46"/><text class="cls-2" transform="translate(173.51 328.26)">6</text><rect class="cls-1" x="126.5" y="126" width="125.46" height="125.46"/><text class="cls-2" transform="translate(173.51 202.76)">5</text><path class="cls-1" d="M251.5.5H368.14A8.82,8.82,0,0,1,377,9.32V126a0,0,0,0,1,0,0H251.5a0,0,0,0,1,0,0V.5A0,0,0,0,1,251.5.5Z"/><text class="cls-2" transform="translate(298.51 77.26)">7</text><path class="cls-1" d="M251.5,251.5H377a0,0,0,0,1,0,0V368.14a8.82,8.82,0,0,1-8.82,8.82H251.5a0,0,0,0,1,0,0V251.5A0,0,0,0,1,251.5,251.5Z"/><text class="cls-2" transform="translate(298.51 328.26)">9</text><rect class="cls-1" x="251.5" y="126" width="125.46" height="125.46"/><text class="cls-2" transform="translate(298.51 202.76)">8</text></svg>