<svg id="Layer_1" data-name="Layer 1" xmlns="http://www.w3.org/2000/svg" viewBox="0 0 1799.06 945.85"><defs><style>.cls-1,.cls-12,.cls-14,.cls-16,.cls-2,.cls-6{fill:none;stroke:#000;}.cls-1,.cls-14,.cls-16,.cls-2,.cls-6{stroke-miterlimit:10;}.cls-1,.cls-12,.cls-14,.cls-16{stroke-width:2px;}.cls-3{font-size:27px;font-family:Roboto-Medium, Roboto;font-weight:500;}.cls-4{letter-spacing:-0.01em;}.cls-5{letter-spacing:-0.01em;}.cls-6{stroke-width:0.25px;}.cls-7,.cls-8{font-size:1.3px;font-family:Poppins-SemiBold, Poppins;font-weight:600;}.cls-7{letter-spacing:0.07em;}.cls-8{letter-spacing:0.08em;}.cls-9{letter-spacing:-0.04em;}.cls-10{letter-spacing:-0.01em;}.cls-11{letter-spacing:-0.02em;}.cls-12{stroke-linecap:round;stroke-linejoin:round;}.cls-13{letter-spacing:-0.01em;}.cls-14{fill-rule:evenodd;}.cls-15{letter-spacing:-0.01em;}.cls-16{stroke-dasharray:11.44 11.44;}</style></defs><rect class="cls-1" x="1061.17" y="617.31" width="8.78" height="90"/><polyline class="cls-1" points="1070.1 692.82 1164.78 692.82 1164.78 701.6 1070 701.6"/><polyline class="cls-1" points="1061.02 701.6 1055.03 701.6 1055.03 692.82 1060.8 692.82"/><rect class="cls-1" x="1077.42" y="666.92" width="11.85" height="25.9"/><rect class="cls-1" x="1098.49" y="656.38" width="11.85" height="36.44"/><rect class="cls-1" x="1119.56" y="648.92" width="11.85" height="43.9"/><rect class="cls-1" x="1140.64" y="637.94" width="11.85" height="54.88"/><polyline class="cls-1" points="1076.1 654.62 1088.46 654.62 1103.04 640.13 1117.16 640.13 1135.05 622.36 1150.2 622.36"/><polygon points="1146.22 625.75 1149.61 622.36 1146.22 618.96 1149.1 618.96 1152.49 622.36 1149.1 625.75 1146.22 625.75"/><circle class="cls-2" cx="1109.9" cy="681.92" r="132.71"/><text class="cls-3" transform="translate(1047.18 746.29)"><tspan class="cls-4">E</tspan><tspan class="cls-5" x="14.92" y="0">v</tspan><tspan x="28.08" y="0">aluation</tspan></text><text class="cls-3" transform="translate(1475.13 746.29)">Modeling</text><circle class="cls-2" cx="1531.56" cy="681.92" r="132.71"/><rect class="cls-1" x="1503.81" y="617.68" width="54.7" height="61.41" rx="0.21"/><rect class="cls-1" x="1503.81" y="683.3" width="54.7" height="23.63" rx="0.21"/><rect x="1507.01" y="688.47" width="1.86" height="1.86"/><rect x="1507.01" y="692.47" width="1.86" height="1.86"/><rect x="1507.01" y="696.48" width="1.86" height="1.86"/><rect x="1507.01" y="700.48" width="1.86" height="1.86"/><rect x="1514.27" y="688.04" width="22.2" height="1.86"/><rect x="1526.72" y="692.47" width="2.88" height="1.86"/><rect x="1528.78" y="696.48" width="4.32" height="1.86"/><rect x="1528.78" y="700.48" width="4.32" height="1.86"/><polyline points="1550.87 700.48 1550.87 702.34 1555.19 702.34 1555.19 700.48"/><rect x="1533.99" y="700.48" width="1.86" height="1.86"/><rect x="1536.51" y="700.48" width="13.59" height="1.86"/><rect x="1533.79" y="696.48" width="2.47" height="1.86"/><rect x="1536.87" y="696.48" width="7.65" height="1.86"/><rect x="1507.01" y="622.38" width="1.86" height="1.86"/><rect x="1507.01" y="626.38" width="1.86" height="1.86"/><rect x="1507.01" y="630.38" width="1.86" height="1.86"/><rect x="1507.01" y="634.39" width="1.86" height="1.86"/><rect x="1507.01" y="638.39" width="1.86" height="1.86"/><rect x="1514.27" y="622.38" width="13.13" height="1.86"/><rect x="1514.27" y="625.95" width="22.2" height="1.86"/><rect x="1526.72" y="630.38" width="2.88" height="1.86"/><rect x="1528.78" y="634.39" width="4.32" height="1.86"/><rect x="1528.78" y="638.39" width="4.32" height="1.86"/><polyline points="1550.87 638.39 1550.87 640.25 1555.19 640.25 1555.19 638.39"/><rect x="1533.99" y="638.39" width="1.86" height="1.86"/><rect x="1536.51" y="638.39" width="13.59" height="1.86"/><rect x="1533.79" y="634.39" width="2.47" height="1.86"/><rect x="1536.87" y="634.39" width="7.65" height="1.86"/><rect x="1507.01" y="643.04" width="1.86" height="1.86"/><rect x="1507.01" y="647.04" width="1.86" height="1.86"/><rect x="1514.27" y="643.04" width="13.13" height="1.86"/><rect x="1514.27" y="646.61" width="22.2" height="1.86"/><rect x="1507.01" y="651.04" width="1.86" height="1.86"/><rect x="1507.01" y="655.05" width="1.86" height="1.86"/><rect x="1507.01" y="659.05" width="1.86" height="1.86"/><rect x="1526.72" y="651.04" width="2.88" height="1.86"/><rect x="1528.78" y="655.05" width="4.32" height="1.86"/><rect x="1528.78" y="659.05" width="4.32" height="1.86"/><polyline points="1550.87 659.05 1550.87 660.91 1555.19 660.91 1555.19 659.05"/><rect x="1533.99" y="659.05" width="1.86" height="1.86"/><rect x="1536.51" y="659.05" width="13.59" height="1.86"/><rect x="1533.79" y="655.05" width="2.47" height="1.86"/><rect x="1536.87" y="655.05" width="7.65" height="1.86"/><rect x="1507.01" y="663.99" width="1.86" height="1.86"/><rect x="1507.01" y="667.99" width="1.86" height="1.86"/><rect x="1507.01" y="671.99" width="1.86" height="1.86"/><rect x="1526.72" y="663.99" width="2.88" height="1.86"/><rect x="1528.78" y="667.99" width="4.32" height="1.86"/><rect x="1528.78" y="671.99" width="4.32" height="1.86"/><polyline points="1550.87 671.99 1550.87 673.86 1555.19 673.86 1555.19 671.99"/><rect x="1533.99" y="671.99" width="1.86" height="1.86"/><rect x="1536.51" y="671.99" width="13.59" height="1.86"/><rect x="1533.79" y="667.99" width="2.47" height="1.86"/><rect x="1536.87" y="667.99" width="7.65" height="1.86"/><rect class="cls-1" x="1443.23" y="617.68" width="56.41" height="89.26" rx="0.21"/><rect x="1447.35" y="622.38" width="1.86" height="1.86"/><rect x="1447.35" y="626.38" width="1.86" height="1.86"/><rect x="1447.35" y="630.38" width="1.86" height="1.86"/><rect x="1447.35" y="634.39" width="1.86" height="1.86"/><rect x="1447.35" y="638.39" width="1.86" height="1.86"/><rect x="1454.6" y="622.38" width="13.13" height="1.86"/><rect x="1454.6" y="625.95" width="22.2" height="1.86"/><rect x="1467.06" y="630.38" width="2.88" height="1.86"/><rect x="1469.11" y="634.39" width="4.32" height="1.86"/><rect x="1469.11" y="638.39" width="4.32" height="1.86"/><polyline points="1491.2 638.39 1491.2 640.25 1495.53 640.25 1495.53 638.39"/><rect x="1474.33" y="638.39" width="1.86" height="1.86"/><rect x="1476.84" y="638.39" width="13.59" height="1.86"/><rect x="1474.12" y="634.39" width="2.47" height="1.86"/><rect x="1477.21" y="634.39" width="7.65" height="1.86"/><rect x="1447.35" y="643.04" width="1.86" height="1.86"/><rect x="1447.35" y="647.04" width="1.86" height="1.86"/><rect x="1447.35" y="651.04" width="1.86" height="1.86"/><rect x="1447.35" y="655.05" width="1.86" height="1.86"/><rect x="1447.35" y="659.05" width="1.86" height="1.86"/><rect x="1454.6" y="643.04" width="13.13" height="1.86"/><rect x="1454.6" y="646.61" width="22.2" height="1.86"/><rect x="1467.06" y="651.04" width="2.88" height="1.86"/><rect x="1469.11" y="655.05" width="4.32" height="1.86"/><rect x="1469.11" y="659.05" width="4.32" height="1.86"/><polyline points="1491.2 659.05 1491.2 660.91 1495.53 660.91 1495.53 659.05"/><rect x="1474.33" y="659.05" width="1.86" height="1.86"/><rect x="1476.84" y="659.05" width="13.59" height="1.86"/><rect x="1474.12" y="655.05" width="2.47" height="1.86"/><rect x="1477.21" y="655.05" width="7.65" height="1.86"/><rect x="1447.35" y="663.7" width="1.86" height="1.86"/><rect x="1447.35" y="667.7" width="1.86" height="1.86"/><rect x="1447.35" y="671.7" width="1.86" height="1.86"/><rect x="1447.35" y="675.71" width="1.86" height="1.86"/><rect x="1447.35" y="679.71" width="1.86" height="1.86"/><rect x="1454.6" y="663.7" width="13.13" height="1.86"/><rect x="1454.6" y="667.27" width="22.2" height="1.86"/><rect x="1467.06" y="671.7" width="2.88" height="1.86"/><rect x="1469.11" y="675.71" width="4.32" height="1.86"/><rect x="1469.11" y="679.71" width="4.32" height="1.86"/><polyline points="1491.2 679.71 1491.2 681.57 1495.53 681.57 1495.53 679.71"/><rect x="1474.33" y="679.71" width="1.86" height="1.86"/><rect x="1476.84" y="679.71" width="13.59" height="1.86"/><rect x="1474.12" y="675.71" width="2.47" height="1.86"/><rect x="1477.21" y="675.71" width="7.65" height="1.86"/><rect x="1447.35" y="684.36" width="1.86" height="1.86"/><rect x="1447.35" y="688.36" width="1.86" height="1.86"/><rect x="1447.35" y="692.36" width="1.86" height="1.86"/><rect x="1447.35" y="696.37" width="1.86" height="1.86"/><rect x="1447.35" y="700.37" width="1.86" height="1.86"/><rect x="1454.6" y="684.36" width="13.13" height="1.86"/><rect x="1454.6" y="687.93" width="22.2" height="1.86"/><rect x="1467.06" y="692.36" width="2.88" height="1.86"/><rect x="1469.11" y="696.37" width="4.32" height="1.86"/><rect x="1469.11" y="700.37" width="4.32" height="1.86"/><polyline points="1491.2 700.37 1491.2 702.23 1495.53 702.23 1495.53 700.37"/><rect x="1474.33" y="700.37" width="1.86" height="1.86"/><rect x="1476.84" y="700.37" width="13.59" height="1.86"/><rect x="1474.12" y="696.37" width="2.47" height="1.86"/><rect x="1477.21" y="696.37" width="7.65" height="1.86"/><rect x="1566.88" y="622.23" width="1.86" height="1.86"/><rect x="1566.88" y="626.23" width="1.86" height="1.86"/><rect x="1566.88" y="630.24" width="1.86" height="1.86"/><rect x="1566.88" y="634.24" width="1.86" height="1.86"/><rect x="1566.88" y="638.24" width="1.86" height="1.86"/><rect x="1574.13" y="622.23" width="13.13" height="1.86"/><rect x="1574.13" y="625.81" width="22.2" height="1.86"/><rect x="1586.59" y="630.24" width="2.88" height="1.86"/><rect x="1588.64" y="634.24" width="4.32" height="1.86"/><rect x="1588.64" y="638.24" width="4.32" height="1.86"/><polyline points="1610.73 638.24 1610.73 640.11 1615.06 640.11 1615.06 638.24"/><rect x="1593.86" y="638.24" width="1.86" height="1.86"/><rect x="1596.37" y="638.24" width="13.59" height="1.86"/><rect x="1593.65" y="634.24" width="2.47" height="1.86"/><rect x="1596.74" y="634.24" width="7.65" height="1.86"/><rect x="1566.88" y="642.89" width="1.86" height="1.86"/><rect x="1566.88" y="646.89" width="1.86" height="1.86"/><rect x="1574.13" y="642.89" width="13.13" height="1.86"/><rect x="1574.13" y="646.47" width="22.2" height="1.86"/><rect x="1566.88" y="650.9" width="1.86" height="1.86"/><rect x="1566.88" y="654.9" width="1.86" height="1.86"/><rect x="1586.59" y="650.9" width="2.88" height="1.86"/><rect x="1588.64" y="654.9" width="4.32" height="1.86"/><rect x="1593.65" y="654.9" width="2.47" height="1.86"/><rect x="1596.74" y="654.9" width="7.65" height="1.86"/><path class="cls-1" d="M1619.66,662h-56.72a.22.22,0,0,1-.22-.22V617.66a.22.22,0,0,1,.22-.22s7.08-.13,16.23-.13c16.76,0,40.49.34,40.49.34a.23.23,0,0,1,.22.23v43.9A.22.22,0,0,1,1619.66,662Z"/><rect class="cls-1" x="1562.72" y="666.07" width="57.16" height="41.24" rx="0.21"/><path class="cls-6" d="M1571.74,687.21a2.48,2.48,0,0,1,2.38,1c.8,1,1.5.81,2.34-.07,1.07-1.12,1.53-1.54,2.66-1,.82.39,1.19-.53,1.83-1.61.39-.66.9-.49,1.35-.17s1.17,1,1.75,1c.74,0,1.5-1.12,2.19-1.76,1.14-1.05,2.48-1.35,3.46.31.71,1.19,1.19,3.3,2,3.88,1,.72,2.08-1.33,2.65-3.72.85-3.59,1.07-9.62,2.92-10.75.23-.14.47-.22.69,0a3.62,3.62,0,0,1,.56,1.64,12.63,12.63,0,0,0,.41,2c.31.87.27,2.51.76,3,.68.66,1.2-2,1.92-2.38,1-.55,1.47,3.45,2.45,4.25s2-2.29,3.08-3.21c.8-.68,1.66-.07,2.49.12a1.37,1.37,0,0,0,1.29-.34c.32-.28.79-1.65,1.11-1.46s.71,1,1.15,1.16a1.22,1.22,0,0,0,1.4-.53"/><path class="cls-6" d="M1571.74,693.2c2.19-.07,4.24-1.76,6.17-3.61.36-.35.76-.71,1.16-.52.59.28,1,1.71,1.56,1.77s.86-.83,1.31-1.21,1.11-.22,1.67-.14c1.47.21,1.66-1.75,2.31-3.84a9,9,0,0,1,1.72-3.29,1.12,1.12,0,0,1,.73-.47c.45,0,.83.66,1.26.89.91.48,2-.94,2.76.15a7.75,7.75,0,0,1,.62,1.48c.45,1.1,1.21,1.68,1.92,1.47.34-.1.67-.37,1-.33a5.37,5.37,0,0,1,2.17,1.38c.28.24.44.8.69,1,.41.4.65-.08,1.06-.29.24-.13.5,0,.75-.17a2.06,2.06,0,0,0,.72-.9,9.92,9.92,0,0,1,1.46-2.32,1,1,0,0,1,1.76.25,6,6,0,0,0,.59,1.16c.41.42.9-.12,1.35-.29,1-.35,1.91,1.19,2.57,2.72s1.2,2.87,2.13,3.52a4.85,4.85,0,0,0,3.22.59"/><line class="cls-6" x1="1571.74" y1="698.11" x2="1571.74" y2="672.14"/><line class="cls-6" x1="1577.09" y1="698.11" x2="1577.09" y2="672.14"/><line class="cls-6" x1="1582.45" y1="698.11" x2="1582.45" y2="672.14"/><line class="cls-6" x1="1587.81" y1="698.11" x2="1587.81" y2="672.14"/><line class="cls-6" x1="1593.16" y1="698.11" x2="1593.16" y2="672.14"/><line class="cls-6" x1="1598.52" y1="698.11" x2="1598.52" y2="672.14"/><line class="cls-6" x1="1603.88" y1="698.11" x2="1603.88" y2="672.14"/><line class="cls-6" x1="1609.24" y1="698.11" x2="1609.24" y2="672.14"/><line class="cls-6" x1="1614.59" y1="698.11" x2="1614.59" y2="672.14"/><text class="cls-7" transform="translate(1571.4 700.96)">A</text><text class="cls-7" transform="translate(1576.83 700.96)">B</text><text class="cls-7" transform="translate(1582.01 700.96)">C</text><text class="cls-7" transform="translate(1587.42 700.96)">D</text><text class="cls-7" transform="translate(1593 700.96)">E</text><text class="cls-7" transform="translate(1598.34 700.96)">F</text><text class="cls-7" transform="translate(1603.37 700.96)">G</text><text class="cls-7" transform="translate(1608.77 700.96)">H</text><text class="cls-7" transform="translate(1614.12 700.96)">A</text><text class="cls-7" transform="translate(1568.15 696.14)">0</text><text class="cls-7" transform="translate(1567.3 690.39)">25</text><text class="cls-8" transform="translate(1567.21 684.64)">50</text><text class="cls-7" transform="translate(1567.34 678.89)">75</text><text class="cls-7" transform="translate(1566.64 673.14)">100</text><line class="cls-6" x1="1603.88" y1="683.92" x2="1603.88" y2="698.11"/><path d="M1604.45,683.78a.57.57,0,0,1-.57.58.58.58,0,1,1,0-1.15A.57.57,0,0,1,1604.45,683.78Z"/><circle class="cls-2" cx="267.5" cy="263.92" r="132.71"/><text class="cls-3" transform="translate(168.02 325.14)">Data Acquisition</text><path class="cls-1" d="M283,283.67h34.37a31.43,31.43,0,1,0-4.74-62.5A44,44,0,0,0,231.18,225c-.51-.05-1-.07-1.54-.07a16.7,16.7,0,0,0-15.23,9.72,25.16,25.16,0,0,0-3.55-.26,24.63,24.63,0,1,0,0,49.25Z"/><text class="cls-3" transform="translate(605.83 324.85)"><tspan class="cls-9">T</tspan><tspan x="15.21" y="0">ext Cleaning</tspan></text><circle class="cls-2" cx="688.25" cy="263.92" r="132.71"/><path class="cls-1" d="M712.76,213.15V196.24a.58.58,0,0,0-.57-.57h-48.7l-16,16.92v72.52a.56.56,0,0,0,.56.56h64.13"/><polyline class="cls-1" points="663.51 195.67 663.51 212.93 647.59 212.93"/><line class="cls-1" x1="654.89" y1="223.53" x2="701.62" y2="223.53"/><line class="cls-1" x1="654.89" y1="233.88" x2="701.62" y2="233.88"/><line class="cls-1" x1="654.89" y1="244.24" x2="701.62" y2="244.24"/><line class="cls-1" x1="654.89" y1="254.59" x2="696.37" y2="254.59"/><line class="cls-1" x1="654.89" y1="264.94" x2="688.88" y2="264.94"/><path class="cls-1" d="M708.84,255.35V217.9a4.3,4.3,0,0,1,4.29-4.3h0a4.3,4.3,0,0,1,4.3,4.3v37.45"/><polyline class="cls-1" points="705.52 261.36 705.52 255.47 720.75 255.47 720.75 261.36"/><path class="cls-1" d="M722.32,285.67H691.58a.29.29,0,0,1-.23-.48h0a21.56,21.56,0,0,0,5.1-13.63l.13-9.91a.31.31,0,0,1,.3-.29h31.83a.29.29,0,0,1,.29.3V279A6.68,6.68,0,0,1,722.32,285.67Z"/><path class="cls-1" d="M720.47,270.69v4.39a14.44,14.44,0,0,1-1.91,7.27,7.89,7.89,0,0,1-3.25,3.32"/><path class="cls-1" d="M712.55,270.69v4.39a14.44,14.44,0,0,1-1.91,7.27,7.89,7.89,0,0,1-3.25,3.32"/><path class="cls-1" d="M704.63,270.69v4.39a14.44,14.44,0,0,1-1.91,7.27,7.83,7.83,0,0,1-3.25,3.32"/><circle class="cls-2" cx="1109.9" cy="263.92" r="132.71"/><text class="cls-3" transform="translate(1017.3 325.21)">P<tspan class="cls-10" x="17.26" y="0">r</tspan><tspan x="26.5" y="0">e-P</tspan><tspan class="cls-11" x="67.1" y="0">r</tspan><tspan x="76.12" y="0">ocessing</tspan></text><text class="cls-3" transform="translate(961 483.21)">Imp<tspan class="cls-11" x="46.31" y="0">r</tspan><tspan class="cls-5" x="55.33" y="0">o</tspan><tspan x="70.51" y="0">ving </tspan><tspan x="3.57" y="32">the model</tspan></text><ellipse class="cls-1" cx="1112.92" cy="208.79" rx="31.45" ry="13.48"/><path class="cls-1" d="M1144.37,225.57c0,7.44-14.08,13.48-31.45,13.48s-31.45-6-31.45-13.48"/><path class="cls-1" d="M1099.25,254.49a47.89,47.89,0,0,1-7.6-2.21"/><path class="cls-1" d="M1128.46,254.07c-1.78.43-3.67.79-5.65,1.08"/><path class="cls-1" d="M1097.41,270.85a45.42,45.42,0,0,1-6-1.89"/><path class="cls-1" d="M1128.53,270.82a57.47,57.47,0,0,1-6,1.14"/><line class="cls-1" x1="1144.37" y1="208.79" x2="1144.37" y2="239.12"/><line class="cls-1" x1="1081.47" y1="208.79" x2="1081.47" y2="237.64"/><path class="cls-12" d="M1091.59,246.44v-7.69a.22.22,0,0,0-.22-.22h-18.8l-6.18,6.53v28a.22.22,0,0,0,.22.22h24.76a.22.22,0,0,0,.22-.22V246.44Z"/><polyline class="cls-12" points="1072.57 238.53 1072.57 245.19 1066.42 245.19"/><path class="cls-12" d="M1122.51,258.46v-7.69a.22.22,0,0,0-.22-.22h-18.81l-6.18,6.54v28a.22.22,0,0,0,.22.22h24.77a.22.22,0,0,0,.22-.22V258.46Z"/><polyline class="cls-12" points="1103.48 250.55 1103.48 257.22 1097.34 257.22"/><path class="cls-12" d="M1153.42,247.3v-7.69a.22.22,0,0,0-.22-.22h-18.81l-6.17,6.53v28a.21.21,0,0,0,.21.22h24.77a.22.22,0,0,0,.22-.22V247.3Z"/><polyline class="cls-12" points="1134.4 239.39 1134.4 246.05 1128.25 246.05"/><circle class="cls-2" cx="1531.56" cy="263.92" r="132.71"/><text class="cls-3" transform="translate(1482.52 321.85)"><tspan class="cls-13">F</tspan><tspan x="14.55" y="0">eatu</tspan><tspan class="cls-10" x="67.63" y="0">r</tspan><tspan x="76.87" y="0">e </tspan><tspan x="-22.55" y="30">Engineering</tspan></text><rect class="cls-1" x="1488.1" y="274.11" width="2.61" height="7.84" rx="0.34"/><rect class="cls-1" x="1495.07" y="274.11" width="2.61" height="7.84" rx="0.34"/><rect class="cls-1" x="1501.61" y="274.11" width="2.61" height="7.84" rx="0.34"/><rect class="cls-1" x="1508.58" y="274.11" width="2.61" height="7.84" rx="0.34"/><rect class="cls-1" x="1515.56" y="274.11" width="2.61" height="7.84" rx="0.34"/><rect class="cls-1" x="1522.53" y="274.11" width="2.61" height="7.84" rx="0.34"/><rect class="cls-1" x="1529.51" y="274.11" width="2.61" height="7.84" rx="0.34"/><rect class="cls-1" x="1536.04" y="274.11" width="2.61" height="7.84" rx="0.34"/><rect class="cls-1" x="1543.02" y="274.11" width="2.61" height="7.84" rx="0.34"/><rect class="cls-1" x="1549.99" y="274.11" width="2.61" height="7.84" rx="0.34"/><rect class="cls-1" x="1556.97" y="274.11" width="2.61" height="7.84" rx="0.34"/><rect class="cls-1" x="1563.94" y="274.11" width="2.61" height="7.84" rx="0.34"/><rect class="cls-1" x="1488.13" y="191.96" width="78.42" height="78.42" rx="0.45"/><rect class="cls-1" x="1519.4" y="191.96" width="15.88" height="78.42"/><rect class="cls-1" x="1535.29" y="191.96" width="15.88" height="78.42"/><rect class="cls-1" x="1503.52" y="191.96" width="15.88" height="78.42"/><rect class="cls-1" x="1519.4" y="191.96" width="15.88" height="78.42" transform="translate(1758.51 -1296.18) rotate(90)"/><rect class="cls-1" x="1519.4" y="207.84" width="15.88" height="78.42" transform="translate(1774.4 -1280.29) rotate(90)"/><rect class="cls-1" x="1519.4" y="176.07" width="15.88" height="78.42" transform="translate(1742.63 -1312.06) rotate(90)"/><circle class="cls-1" cx="1495.98" cy="200.05" r="3.49"/><circle class="cls-1" cx="1495.98" cy="215.51" r="3.49"/><circle class="cls-1" cx="1495.98" cy="230.98" r="3.49"/><circle class="cls-1" cx="1495.98" cy="246.45" r="3.49"/><circle class="cls-1" cx="1495.98" cy="261.91" r="3.49"/><circle class="cls-1" cx="1511.66" cy="200.05" r="3.49"/><circle class="cls-1" cx="1527.35" cy="200.05" r="3.49"/><circle class="cls-1" cx="1543.03" cy="200.05" r="3.49"/><circle class="cls-1" cx="1558.72" cy="200.05" r="3.49"/><circle class="cls-2" cx="688.25" cy="681.92" r="132.71"/><text class="cls-3" transform="translate(615.99 739.76)">Depl<tspan class="cls-5" x="54.22" y="0">o</tspan><tspan x="69.4" y="0">yment</tspan></text><polygon class="cls-14" points="602.23 652.81 602.23 665.9 615.66 665.9 645 665.9 658.44 665.9 658.44 652.81 645 652.81 615.66 652.81 602.23 652.81"/><path class="cls-14" d="M642.87,648.2a.26.26,0,0,1,.23.28v3a.25.25,0,0,1-.23.28H617.8a.25.25,0,0,1-.23-.28v-3a.23.23,0,0,1,.21-.25Z"/><path class="cls-14" d="M617.8,644.52a.26.26,0,0,1-.23-.28v-3a.25.25,0,0,1,.23-.28h25.07a.25.25,0,0,1,.23.28v3.11a.16.16,0,0,1-.14.17Z"/><path class="cls-14" d="M617.8,637.28a.26.26,0,0,1-.23-.28v-3a.25.25,0,0,1,.23-.27h25.07a.25.25,0,0,1,.23.27v3.07a.2.2,0,0,1-.18.22Z"/><path class="cls-14" d="M594.33,668.41a.37.37,0,0,0-.37.39q1,24.78,23.29,32.41a10.6,10.6,0,0,0,3.34.57H753.34a4.6,4.6,0,0,0,3.56-1.69l25.61-31.41a.17.17,0,0,0-.13-.27Z"/><path class="cls-14" d="M687.55,665.94V651.7a.54.54,0,0,0-.53-.54H672.77v14.78Z"/><path class="cls-14" d="M690.46,651.16v14.25a.53.53,0,0,0,.54.53h13.71a.52.52,0,0,0,.53-.53V651.7a.53.53,0,0,0-.53-.54Z"/><path class="cls-14" d="M708.15,651.16v14.25a.53.53,0,0,0,.54.53H722.4a.52.52,0,0,0,.53-.53V651.7a.53.53,0,0,0-.53-.54Z"/><path class="cls-14" d="M725.85,651.16v14.25a.52.52,0,0,0,.53.53h13.71a.53.53,0,0,0,.54-.53V651.7a.54.54,0,0,0-.54-.54Z"/><path class="cls-14" d="M743.54,651.16v14.25a.53.53,0,0,0,.53.53h13.72a.53.53,0,0,0,.53-.53V651.7a.54.54,0,0,0-.53-.54Z"/><path class="cls-14" d="M761.23,651.16v14.25a.53.53,0,0,0,.53.53h13.72a.53.53,0,0,0,.53-.53V651.7a.54.54,0,0,0-.53-.54Z"/><path class="cls-14" d="M751.15,648.81H765.4a.53.53,0,0,0,.53-.53V634.56a.53.53,0,0,0-.53-.53H751.68a.53.53,0,0,0-.53.53v14.25Z"/><path class="cls-14" d="M749,648.81V634.56a.54.54,0,0,0-.54-.53H734.78a.54.54,0,0,0-.54.53v13.72a.54.54,0,0,0,.54.53Z"/><path class="cls-14" d="M743.45,631.56H757.7a.53.53,0,0,0,.53-.54V617.31a.52.52,0,0,0-.53-.53H744a.53.53,0,0,0-.53.53v14.25Z"/><path class="cls-14" d="M741.33,631.56V617.31a.53.53,0,0,0-.54-.53H727.08a.53.53,0,0,0-.54.53V631a.54.54,0,0,0,.54.54Z"/><path class="cls-14" d="M723.63,631.56V617.31a.52.52,0,0,0-.53-.53H709.39a.53.53,0,0,0-.54.53V631a.54.54,0,0,0,.54.54Z"/><path class="cls-14" d="M705.94,631.56V617.31a.52.52,0,0,0-.53-.53H691.69a.53.53,0,0,0-.53.53V631a.54.54,0,0,0,.53.54Z"/><path class="cls-14" d="M713.64,634H699.39a.53.53,0,0,0-.53.53v13.72a.53.53,0,0,0,.53.53h13.72a.53.53,0,0,0,.53-.53V634Z"/><path class="cls-14" d="M716.55,634v14.25a.53.53,0,0,0,.53.53H730.8a.53.53,0,0,0,.53-.53V634.56a.53.53,0,0,0-.53-.53Z"/><path class="cls-14" d="M696,648.81V634.56a.53.53,0,0,0-.53-.53H681.7a.53.53,0,0,0-.53.53v13.72a.53.53,0,0,0,.53.53Z"/><path class="cls-1" d="M239.76,617.75v-13a.21.21,0,0,1,.21-.21h54.27a.21.21,0,0,1,.21.21v61a.21.21,0,0,1-.21.21H263.77"/><path class="cls-1" d="M259,670.17h35.27a.21.21,0,0,1,.21.21v23.21a.21.21,0,0,1-.21.21H240a.21.21,0,0,1-.21-.21V675.38"/><rect x="242.96" y="675.34" width="1.86" height="1.86"/><rect x="242.96" y="679.34" width="1.86" height="1.86"/><rect x="242.96" y="683.35" width="1.86" height="1.86"/><rect x="242.96" y="687.35" width="1.86" height="1.86"/><rect x="250.21" y="674.91" width="22.2" height="1.86"/><rect x="262.67" y="679.34" width="2.88" height="1.86"/><rect x="264.72" y="683.35" width="4.32" height="1.86"/><rect x="264.72" y="687.35" width="4.32" height="1.86"/><polyline points="286.81 687.35 286.81 689.21 291.14 689.21 291.14 687.35"/><rect x="269.94" y="687.35" width="1.86" height="1.86"/><rect x="272.45" y="687.35" width="13.59" height="1.86"/><rect x="269.73" y="683.35" width="2.47" height="1.86"/><rect x="272.82" y="683.35" width="7.65" height="1.86"/><rect x="242.96" y="609.25" width="1.86" height="1.86"/><rect x="242.96" y="613.25" width="1.86" height="1.86"/><rect x="242.96" y="617.25" width="1.86" height="1.86"/><rect x="250.21" y="609.25" width="13.13" height="1.86"/><rect x="250.21" y="612.82" width="22.2" height="1.86"/><rect x="262.67" y="617.25" width="2.88" height="1.86"/><rect x="264.72" y="621.26" width="4.32" height="1.86"/><rect x="264.72" y="625.26" width="4.32" height="1.86"/><polyline points="286.81 625.26 286.81 627.12 291.14 627.12 291.14 625.26"/><rect x="269.94" y="625.26" width="1.86" height="1.86"/><rect x="272.45" y="625.26" width="13.59" height="1.86"/><rect x="269.73" y="621.26" width="2.47" height="1.86"/><rect x="272.82" y="621.26" width="7.65" height="1.86"/><rect x="242.96" y="637.91" width="1.86" height="1.86"/><rect x="242.96" y="645.92" width="1.86" height="1.86"/><polyline points="286.81 645.92 286.81 647.78 291.14 647.78 291.14 645.92"/><rect x="269.94" y="645.92" width="1.86" height="1.86"/><rect x="272.45" y="645.92" width="13.59" height="1.86"/><rect x="269.73" y="641.92" width="2.47" height="1.86"/><rect x="272.82" y="641.92" width="7.65" height="1.86"/><polyline points="286.81 658.86 286.81 660.73 291.14 660.73 291.14 658.86"/><rect x="269.94" y="658.86" width="1.86" height="1.86"/><rect x="272.45" y="658.86" width="13.59" height="1.86"/><rect x="269.73" y="654.86" width="2.47" height="1.86"/><rect x="272.82" y="654.86" width="7.65" height="1.86"/><path class="cls-1" d="M235.59,674.62v19a.21.21,0,0,1-.21.21h-56a.21.21,0,0,1-.21-.21V604.76a.21.21,0,0,1,.21-.21h56a.21.21,0,0,1,.21.21v14.33"/><rect x="183.3" y="609.25" width="1.86" height="1.86"/><rect x="183.3" y="613.25" width="1.86" height="1.86"/><rect x="183.3" y="617.25" width="1.86" height="1.86"/><rect x="183.3" y="621.26" width="1.86" height="1.86"/><rect x="183.3" y="625.26" width="1.86" height="1.86"/><rect x="190.55" y="609.25" width="13.13" height="1.86"/><rect x="190.55" y="612.82" width="22.2" height="1.86"/><rect x="203" y="617.25" width="2.88" height="1.86"/><rect x="205.06" y="621.26" width="4.32" height="1.86"/><rect x="205.06" y="625.26" width="4.32" height="1.86"/><rect x="210.27" y="625.26" width="1.86" height="1.86"/><rect x="212.79" y="625" width="10.21" height="2.12"/><rect x="210.07" y="621.26" width="2.47" height="1.86"/><rect x="213.15" y="621.26" width="7.65" height="1.86"/><rect x="183.3" y="629.91" width="1.86" height="1.86"/><rect x="183.3" y="633.91" width="1.86" height="1.86"/><rect x="183.3" y="637.91" width="1.86" height="1.86"/><rect x="183.3" y="641.92" width="1.86" height="1.86"/><rect x="183.3" y="645.92" width="1.86" height="1.86"/><rect x="190.55" y="629.91" width="13.13" height="1.86"/><rect x="190.55" y="633.48" width="22.2" height="1.86"/><rect x="203" y="637.91" width="2.88" height="1.86"/><rect x="205.06" y="641.92" width="4.32" height="1.86"/><rect x="205.06" y="645.92" width="4.32" height="1.86"/><polyline points="227.15 645.92 227.15 647.78 231.47 647.78 231.47 645.92"/><rect x="210.27" y="645.92" width="1.86" height="1.86"/><rect x="210.07" y="641.92" width="2.47" height="1.86"/><rect x="183.3" y="650.57" width="1.86" height="1.86"/><rect x="183.3" y="654.57" width="1.86" height="1.86"/><rect x="183.3" y="658.57" width="1.86" height="1.86"/><rect x="183.3" y="662.58" width="1.86" height="1.86"/><rect x="183.3" y="666.58" width="1.86" height="1.86"/><rect x="190.55" y="650.57" width="13.13" height="1.86"/><rect x="190.55" y="654.14" width="22.2" height="1.86"/><rect x="203" y="658.57" width="2.88" height="1.86"/><rect x="205.06" y="662.58" width="4.32" height="1.86"/><rect x="205.06" y="666.58" width="4.32" height="1.86"/><rect x="210.27" y="666.58" width="1.86" height="1.86"/><polyline points="223.37 666.58 212.79 666.58 212.79 668.44 223.37 668.44"/><rect x="210.07" y="662.58" width="2.47" height="1.86"/><polygon points="218.81 662.58 213.16 662.58 213.16 664.44 220.81 664.44 218.81 662.58"/><rect x="183.3" y="671.23" width="1.86" height="1.86"/><rect x="183.3" y="675.23" width="1.86" height="1.86"/><rect x="183.3" y="679.23" width="1.86" height="1.86"/><rect x="183.3" y="683.24" width="1.86" height="1.86"/><rect x="183.3" y="687.24" width="1.86" height="1.86"/><rect x="190.55" y="671.23" width="13.13" height="1.86"/><rect x="190.55" y="674.8" width="22.2" height="1.86"/><rect x="203" y="679.23" width="2.88" height="1.86"/><rect x="205.06" y="683.24" width="4.32" height="1.86"/><rect x="205.06" y="687.24" width="4.32" height="1.86"/><polyline points="227.15 687.24 227.15 689.1 231.47 689.1 231.47 687.24"/><rect x="210.27" y="687.24" width="1.86" height="1.86"/><rect x="212.79" y="687.24" width="13.59" height="1.86"/><rect x="210.07" y="683.24" width="2.47" height="1.86"/><rect x="213.15" y="683.24" width="7.65" height="1.86"/><rect x="302.83" y="609.1" width="1.86" height="1.86"/><rect x="302.83" y="613.1" width="1.86" height="1.86"/><rect x="302.83" y="617.11" width="1.86" height="1.86"/><rect x="302.83" y="621.11" width="1.86" height="1.86"/><rect x="302.83" y="625.11" width="1.86" height="1.86"/><rect x="310.08" y="609.1" width="13.13" height="1.86"/><rect x="310.08" y="612.68" width="22.2" height="1.86"/><rect x="322.53" y="617.11" width="2.88" height="1.86"/><rect x="324.59" y="621.11" width="4.32" height="1.86"/><rect x="324.59" y="625.11" width="4.32" height="1.86"/><polyline points="346.68 625.11 346.68 626.98 351 626.98 351 625.11"/><rect x="329.8" y="625.11" width="1.86" height="1.86"/><rect x="332.32" y="625.11" width="13.59" height="1.86"/><rect x="329.6" y="621.11" width="2.47" height="1.86"/><rect x="332.68" y="621.11" width="7.65" height="1.86"/><rect x="302.83" y="629.76" width="1.86" height="1.86"/><rect x="302.83" y="633.76" width="1.86" height="1.86"/><rect x="310.08" y="629.76" width="13.13" height="1.86"/><rect x="310.08" y="633.33" width="22.2" height="1.86"/><rect x="302.83" y="637.77" width="1.86" height="1.86"/><rect x="302.83" y="641.77" width="1.86" height="1.86"/><rect x="322.53" y="637.77" width="2.88" height="1.86"/><rect x="324.59" y="641.77" width="4.32" height="1.86"/><rect x="329.6" y="641.77" width="2.47" height="1.86"/><rect x="332.68" y="641.77" width="7.65" height="1.86"/><path class="cls-1" d="M355.61,648.87H298.89a.22.22,0,0,1-.22-.22V604.53a.22.22,0,0,1,.22-.22s7.07-.13,16.22-.13c16.76,0,40.5.34,40.5.34a.24.24,0,0,1,.22.23v43.9A.22.22,0,0,1,355.61,648.87Z"/><rect class="cls-1" x="298.67" y="652.94" width="57.16" height="41.24" rx="0.21"/><path class="cls-6" d="M307.68,674.08a2.49,2.49,0,0,1,2.39,1c.79,1,1.5.81,2.33-.07,1.07-1.12,1.54-1.54,2.67-1,.82.39,1.19-.53,1.82-1.61.4-.66.91-.49,1.35-.17s1.18,1,1.76,1c.74,0,1.5-1.12,2.19-1.76,1.14-1.05,2.47-1.35,3.46.31.7,1.19,1.19,3.29,2,3.88,1,.72,2.09-1.33,2.66-3.72.85-3.59,1.07-9.62,2.92-10.75.23-.14.47-.22.68,0a3.62,3.62,0,0,1,.56,1.64,14.2,14.2,0,0,0,.41,2c.32.87.28,2.51.77,3,.67.66,1.19-2,1.91-2.38,1-.56,1.48,3.45,2.46,4.25s2-2.29,3.07-3.21c.81-.68,1.66-.07,2.5.12a1.37,1.37,0,0,0,1.29-.34c.32-.28.78-1.65,1.1-1.46s.72,1,1.16,1.16a1.24,1.24,0,0,0,1.4-.53"/><path class="cls-6" d="M307.68,680.07c2.19-.07,4.25-1.76,6.17-3.61.37-.35.77-.71,1.16-.53.6.29.95,1.72,1.56,1.78s.86-.83,1.31-1.21,1.12-.22,1.68-.14c1.46.21,1.66-1.75,2.31-3.84a9,9,0,0,1,1.71-3.29,1.14,1.14,0,0,1,.73-.47c.45,0,.83.66,1.27.89.91.48,2-.94,2.76.15a9.28,9.28,0,0,1,.62,1.48c.45,1.1,1.21,1.68,1.92,1.47.34-.1.67-.37,1-.33a5.41,5.41,0,0,1,2.18,1.37c.28.25.43.81.69,1.05.41.4.65-.08,1.05-.29s.51,0,.75-.17a2.12,2.12,0,0,0,.72-.9,10.26,10.26,0,0,1,1.46-2.32,1,1,0,0,1,1.77.25,5.46,5.46,0,0,0,.59,1.16c.41.42.89-.13,1.35-.29,1-.35,1.91,1.19,2.57,2.72s1.2,2.87,2.13,3.52a4.83,4.83,0,0,0,3.21.59"/><line class="cls-6" x1="307.68" y1="684.98" x2="307.68" y2="659.01"/><line class="cls-6" x1="313.04" y1="684.98" x2="313.04" y2="659.01"/><line class="cls-6" x1="318.4" y1="684.98" x2="318.4" y2="659.01"/><line class="cls-6" x1="323.75" y1="684.98" x2="323.75" y2="659.01"/><line class="cls-6" x1="329.11" y1="684.98" x2="329.11" y2="659.01"/><line class="cls-6" x1="334.47" y1="684.98" x2="334.47" y2="659.01"/><line class="cls-6" x1="339.83" y1="684.98" x2="339.83" y2="659.01"/><line class="cls-6" x1="345.18" y1="684.98" x2="345.18" y2="659.01"/><line class="cls-6" x1="350.54" y1="684.98" x2="350.54" y2="659.01"/><text class="cls-7" transform="translate(307.34 687.83)">A</text><text class="cls-7" transform="translate(312.78 687.83)">B</text><text class="cls-7" transform="translate(317.95 687.83)">C</text><text class="cls-7" transform="translate(323.36 687.83)">D</text><text class="cls-7" transform="translate(328.94 687.83)">E</text><text class="cls-7" transform="translate(334.29 687.83)">F</text><text class="cls-7" transform="translate(339.31 687.83)">G</text><text class="cls-7" transform="translate(344.72 687.83)">H</text><text class="cls-7" transform="translate(350.06 687.83)">A</text><text class="cls-7" transform="translate(304.09 683.01)">0</text><text class="cls-7" transform="translate(303.25 677.26)">25</text><text class="cls-8" transform="translate(303.15 671.51)">50</text><text class="cls-7" transform="translate(303.28 665.76)">75</text><text class="cls-7" transform="translate(302.58 660.01)">100</text><line class="cls-6" x1="339.83" y1="670.79" x2="339.83" y2="684.98"/><path d="M340.4,670.65a.58.58,0,1,1-1.15,0,.58.58,0,0,1,1.15,0Z"/><text class="cls-3" transform="translate(172.56 734.36)">Moni<tspan class="cls-15" x="60.92" y="0">t</tspan><tspan x="69.5" y="0">oring and </tspan><tspan x="-0.65" y="30">Model Updating</tspan></text><circle class="cls-2" cx="267.5" cy="681.92" r="132.71"/><circle class="cls-12" cx="242.56" cy="646.59" r="28.4"/><line class="cls-12" x1="219.09" y1="666.35" x2="179.46" y2="694.66"/><line class="cls-1" x1="399.44" y1="263.92" x2="541.28" y2="263.92"/><polygon points="555.4 263.92 535.5 272.05 540.22 263.92 535.5 255.79 555.4 263.92"/><line class="cls-1" x1="821.1" y1="259.92" x2="962.93" y2="259.92"/><polygon points="977.05 259.92 957.16 268.05 961.88 259.92 957.16 251.79 977.05 259.92"/><line class="cls-1" x1="1242.75" y1="257.92" x2="1384.59" y2="257.92"/><polygon points="1398.71 257.92 1378.81 266.05 1383.53 257.92 1378.81 249.79 1398.71 257.92"/><line class="cls-1" x1="1398.71" y1="681.92" x2="1256.88" y2="681.92"/><polygon points="1242.75 681.92 1262.65 673.79 1257.93 681.92 1262.65 690.05 1242.75 681.92"/><line class="cls-1" x1="977.05" y1="681.92" x2="835.22" y2="681.92"/><polygon points="821.1 681.92 841 673.79 836.28 681.92 841 690.05 821.1 681.92"/><line class="cls-1" x1="555.4" y1="681.92" x2="413.57" y2="681.92"/><polygon points="399.44 681.92 419.34 673.79 414.62 681.92 419.34 690.05 399.44 681.92"/><line class="cls-1" x1="1531.56" y1="396.73" x2="1531.56" y2="534.61"/><polygon points="1531.56 548.73 1523.43 528.84 1531.56 533.56 1539.69 528.84 1531.56 548.73"/><line class="cls-1" x1="1104.56" y1="548.73" x2="1104.56" y2="542.73"/><line class="cls-16" x1="1104.56" y1="531.29" x2="1104.56" y2="422.58"/><line class="cls-1" x1="1104.56" y1="416.85" x2="1104.56" y2="410.85"/><polygon points="1104.56 396.73 1112.69 416.63 1104.56 411.91 1096.43 416.63 1104.56 396.73"/><line class="cls-1" x1="267.5" y1="546.73" x2="267.5" y2="540.73"/><line class="cls-16" x1="267.5" y1="529.29" x2="267.5" y2="420.58"/><line class="cls-1" x1="267.5" y1="414.85" x2="267.5" y2="408.85"/><polygon points="267.5 394.73 275.64 414.63 267.5 409.91 259.38 414.63 267.5 394.73"/><rect x="222" y="637.91" width="25.38" height="3.61"/><rect x="222" y="644.82" width="42.93" height="3.61"/><rect x="246.08" y="653.39" width="5.57" height="3.61"/></svg>